  0
SECTION
  2
HEADER
  9
$ACADVER
  1
AC1014
  9
$ACADMAINTVER
 70
     9
  9
$DWGCODEPAGE
  3
ANSI_1252
  9
$INSBASE
 10
0.0
 20
0.0
 30
0.0
  9
$EXTMIN
 10
-7.298296695563977
 20
60.55577747472756
 30
0.0
  9
$EXTMAX
 10
1695.166166568314
 20
567.0773088387778
 30
0.0
  9
$LIMMIN
 10
0.0
 20
0.0
  9
$LIMMAX
 10
12.0
 20
9.0
  9
$ORTHOMODE
 70
     0
  9
$REGENMODE
 70
     1
  9
$FILLMODE
 70
     1
  9
$QTEXTMODE
 70
     0
  9
$MIRRTEXT
 70
     1
  9
$DRAGMODE
 70
     2
  9
$LTSCALE
 40
1.0
  9
$OSMODE
 70
 16383
  9
$ATTMODE
 70
     1
  9
$TEXTSIZE
 40
0.2
  9
$TRACEWID
 40
0.05
  9
$TEXTSTYLE
  7
STANDARD
  9
$CLAYER
  8
CUTTING
  9
$CELTYPE
  6
BYLAYER
  9
$CECOLOR
 62
   256
  9
$CELTSCALE
 40
1.0
  9
$DELOBJ
 70
     1
  9
$DISPSILH
 70
     0
  9
$DIMSCALE
 40
20.0
  9
$DIMASZ
 40
0.18
  9
$DIMEXO
 40
0.0625
  9
$DIMDLI
 40
0.38
  9
$DIMRND
 40
0.0
  9
$DIMDLE
 40
0.0
  9
$DIMEXE
 40
0.18
  9
$DIMTP
 40
0.0
  9
$DIMTM
 40
0.0
  9
$DIMTXT
 40
0.18
  9
$DIMCEN
 40
0.09
  9
$DIMTSZ
 40
0.0
  9
$DIMTOL
 70
     0
  9
$DIMLIM
 70
     0
  9
$DIMTIH
 70
     1
  9
$DIMTOH
 70
     1
  9
$DIMSE1
 70
     0
  9
$DIMSE2
 70
     0
  9
$DIMTAD
 70
     0
  9
$DIMZIN
 70
     0
  9
$DIMBLK
  1

  9
$DIMASO
 70
     1
  9
$DIMSHO
 70
     1
  9
$DIMPOST
  1

  9
$DIMAPOST
  1

  9
$DIMALT
 70
     0
  9
$DIMALTD
 70
     2
  9
$DIMALTF
 40
25.4
  9
$DIMLFAC
 40
1.0
  9
$DIMTOFL
 70
     0
  9
$DIMTVP
 40
0.0
  9
$DIMTIX
 70
     0
  9
$DIMSOXD
 70
     0
  9
$DIMSAH
 70
     0
  9
$DIMBLK1
  1

  9
$DIMBLK2
  1

  9
$DIMSTYLE
  2
STANDARD
  9
$DIMCLRD
 70
     0
  9
$DIMCLRE
 70
     0
  9
$DIMCLRT
 70
     0
  9
$DIMTFAC
 40
1.0
  9
$DIMGAP
 40
0.09
  9
$DIMJUST
 70
     0
  9
$DIMSD1
 70
     0
  9
$DIMSD2
 70
     0
  9
$DIMTOLJ
 70
     1
  9
$DIMTZIN
 70
     0
  9
$DIMALTZ
 70
     0
  9
$DIMALTTZ
 70
     0
  9
$DIMFIT
 70
     5
  9
$DIMUPT
 70
     0
  9
$DIMUNIT
 70
     2
  9
$DIMDEC
 70
     4
  9
$DIMTDEC
 70
     4
  9
$DIMALTU
 70
     2
  9
$DIMALTTD
 70
     2
  9
$DIMTXSTY
  7
STANDARD
  9
$DIMAUNIT
 70
     0
  9
$LUNITS
 70
     2
  9
$LUPREC
 70
     4
  9
$SKETCHINC
 40
0.1
  9
$FILLETRAD
 40
1.0
  9
$AUNITS
 70
     0
  9
$AUPREC
 70
     0
  9
$MENU
  1
.
  9
$ELEVATION
 40
0.0
  9
$PELEVATION
 40
0.0
  9
$THICKNESS
 40
0.0
  9
$LIMCHECK
 70
     0
  9
$CHAMFERA
 40
0.5
  9
$CHAMFERB
 40
0.5
  9
$CHAMFERC
 40
1.0
  9
$CHAMFERD
 40
0.0
  9
$SKPOLY
 70
     0
  9
$TDCREATE
 40
2458935.855324063
  9
$TDUPDATE
 40
2458946.405205926
  9
$TDINDWG
 40
0.0000012847
  9
$TDUSRTIMER
 40
0.0003373611
  9
$USRTIMER
 70
     1
  9
$ANGBASE
 50
0.0
  9
$ANGDIR
 70
     0
  9
$PDMODE
 70
     0
  9
$PDSIZE
 40
0.0
  9
$PLINEWID
 40
0.0
  9
$COORDS
 70
     1
  9
$SPLFRAME
 70
     0
  9
$SPLINETYPE
 70
     6
  9
$SPLINESEGS
 70
     8
  9
$ATTDIA
 70
     0
  9
$ATTREQ
 70
     1
  9
$HANDLING
 70
     1
  9
$HANDSEED
  5
1529
  9
$SURFTAB1
 70
     6
  9
$SURFTAB2
 70
     6
  9
$SURFTYPE
 70
     6
  9
$SURFU
 70
     6
  9
$SURFV
 70
     6
  9
$UCSNAME
  2

  9
$UCSORG
 10
0.0
 20
0.0
 30
0.0
  9
$UCSXDIR
 10
1.0
 20
0.0
 30
0.0
  9
$UCSYDIR
 10
0.0
 20
1.0
 30
0.0
  9
$PUCSNAME
  2

  9
$PUCSORG
 10
0.0
 20
0.0
 30
0.0
  9
$PUCSXDIR
 10
1.0
 20
0.0
 30
0.0
  9
$PUCSYDIR
 10
0.0
 20
1.0
 30
0.0
  9
$USERI1
 70
     0
  9
$USERI2
 70
     0
  9
$USERI3
 70
     0
  9
$USERI4
 70
     0
  9
$USERI5
 70
     0
  9
$USERR1
 40
0.0
  9
$USERR2
 40
0.0
  9
$USERR3
 40
0.0
  9
$USERR4
 40
0.0
  9
$USERR5
 40
0.0
  9
$WORLDVIEW
 70
     1
  9
$SHADEDGE
 70
     3
  9
$SHADEDIF
 70
    70
  9
$TILEMODE
 70
     1
  9
$MAXACTVP
 70
    64
  9
$PINSBASE
 10
0.0
 20
0.0
 30
0.0
  9
$PLIMCHECK
 70
     0
  9
$PEXTMIN
 10
1.000000000000000E+20
 20
1.000000000000000E+20
 30
1.000000000000000E+20
  9
$PEXTMAX
 10
-1.000000000000000E+20
 20
-1.000000000000000E+20
 30
-1.000000000000000E+20
  9
$PLIMMIN
 10
0.0
 20
0.0
  9
$PLIMMAX
 10
0.0
 20
0.0
  9
$UNITMODE
 70
     0
  9
$VISRETAIN
 70
     1
  9
$PLINEGEN
 70
     0
  9
$PSLTSCALE
 70
     1
  9
$TREEDEPTH
 70
  3020
  9
$PICKSTYLE
 70
     1
  9
$CMLSTYLE
  2
STANDARD
  9
$CMLJUST
 70
     0
  9
$CMLSCALE
 40
1.0
  9
$PROXYGRAPHICS
 70
     1
  9
$MEASUREMENT
 70
     0
  0
ENDSEC
  0
SECTION
  2
CLASSES
  0
CLASS
  1
ACDBDICTIONARYWDFLT
  2
AcDbDictionaryWithDefault
  3
ObjectDBX Classes
 90
        0
280
     0
281
     0
  0
CLASS
  1
VISUALSTYLE
  2
AcDbVisualStyle
  3
ObjectDBX Classes
 90
     4095
280
     0
281
     0
  0
CLASS
  1
MATERIAL
  2
AcDbMaterial
  3
ObjectDBX Classes
 90
     1153
280
     0
281
     0
  0
CLASS
  1
SUN
  2
AcDbSun
  3
SCENEOE
 90
     1153
280
     0
281
     0
  0
CLASS
  1
SCALE
  2
AcDbScale
  3
ObjectDBX Classes
 90
     1153
280
     0
281
     0
  0
CLASS
  1
TABLESTYLE
  2
AcDbTableStyle
  3
ObjectDBX Classes
 90
     4095
280
     0
281
     0
  0
CLASS
  1
MLEADERSTYLE
  2
AcDbMLeaderStyle
  3
ACDB_MLEADERSTYLE_CLASS
 90
     4095
280
     0
281
     0
  0
CLASS
  1
SORTENTSTABLE
  2
AcDbSortentsTable
  3
ObjectDBX Classes
 90
        0
280
     0
281
     0
  0
CLASS
  1
DICTIONARYVAR
  2
AcDbDictionaryVar
  3
ObjectDBX Classes
 90
        0
280
     0
281
     0
  0
CLASS
  1
XRECORD
  2
AcDbXrecord
  3
ObjectDBX Classes
 90
        0
280
     0
281
     0
  0
CLASS
  1
LWPOLYLINE
  2
AcDbPolyline
  3
ObjectDBX Classes
 90
        0
280
     0
281
     1
  0
CLASS
  1
HATCH
  2
AcDbHatch
  3
ObjectDBX Classes
 90
        0
280
     0
281
     1
  0
CLASS
  1
DIMASSOC
  2
AcDbDimAssoc
  3
"AcDbDimAssoc|Product Desc:     AcDim ARX App For Dimension|Company:          Autodesk, Inc.|WEB Address:      www.autodesk.com"
 90
        0
280
     0
281
     0
  0
CLASS
  1
BREAKDATA
  2
AcDbBreakData
  3
ObjectDBX Classes
 90
     1024
280
     0
281
     0
  0
ENDSEC
  0
SECTION
  2
TABLES
  0
TABLE
  2
VPORT
  5
8
330
0
100
AcDbSymbolTable
 70
     1
  0
VPORT
  5
29
330
8
100
AcDbSymbolTableRecord
100
AcDbViewportTableRecord
  2
*ACTIVE
 70
     0
 10
0.0
 20
0.0
 11
1.0
 21
1.0
 12
991.880147712684
 22
116.8146253435063
 13
0.0
 23
0.0
 14
0.5
 24
0.5
 15
0.5
 25
0.5
 16
0.0
 26
0.0
 36
1.0
 17
300.0004582583333
 27
150.0000527402776
 37
0.0
 40
663.0996940953402
 41
1.700084245998315
 42
50.0
 43
0.0
 44
0.0
 50
0.0
 51
0.0
 71
    16
 72
   100
 73
     1
 74
     3
 75
     0
 76
     0
 77
     0
 78
     0
  0
ENDTAB
  0
TABLE
  2
LTYPE
  5
5
330
0
100
AcDbSymbolTable
 70
     1
  0
LTYPE
  5
14
330
5
100
AcDbSymbolTableRecord
100
AcDbLinetypeTableRecord
  2
BYBLOCK
 70
     0
  3

 72
    65
 73
     0
 40
0.0
  0
LTYPE
  5
15
330
5
100
AcDbSymbolTableRecord
100
AcDbLinetypeTableRecord
  2
BYLAYER
 70
     0
  3

 72
    65
 73
     0
 40
0.0
  0
LTYPE
  5
16
330
5
100
AcDbSymbolTableRecord
100
AcDbLinetypeTableRecord
  2
CONTINUOUS
 70
     0
  3
Solid line
 72
    65
 73
     0
 40
0.0
  0
ENDTAB
  0
TABLE
  2
LAYER
  5
2
102
{ACAD_XDICTIONARY
360
155
102
}
330
0
100
AcDbSymbolTable
 70
     5
  0
LAYER
  5
10
330
2
100
AcDbSymbolTableRecord
100
AcDbLayerTableRecord
  2
0
 70
     0
 62
     7
  6
CONTINUOUS
  0
LAYER
  5
40
330
2
100
AcDbSymbolTableRecord
100
AcDbLayerTableRecord
  2
CONSTRUCTION
 70
     0
 62
     6
  6
CONTINUOUS
  0
LAYER
  5
DB
330
2
100
AcDbSymbolTableRecord
100
AcDbLayerTableRecord
  2
CUTTING
 70
     0
 62
     1
  6
CONTINUOUS
  0
LAYER
  5
383
330
2
100
AcDbSymbolTableRecord
100
AcDbLayerTableRecord
  2
DEFPOINTS
 70
     0
 62
     7
  6
CONTINUOUS
  0
LAYER
  5
5F1
330
2
100
AcDbSymbolTableRecord
100
AcDbLayerTableRecord
  2
DIMENSIONS
 70
     0
 62
     7
  6
CONTINUOUS
1001
ACAECLAYERSTANDARD
1000

1000

  0
ENDTAB
  0
TABLE
  2
STYLE
  5
3
330
0
100
AcDbSymbolTable
 70
     1
  0
STYLE
  5
11
330
3
100
AcDbSymbolTableRecord
100
AcDbTextStyleTableRecord
  2
STANDARD
 70
     0
 40
0.0
 41
1.0
 50
0.0
 71
     0
 42
0.2
  3
txt
  4

  0
ENDTAB
  0
TABLE
  2
VIEW
  5
6
330
0
100
AcDbSymbolTable
 70
     0
  0
ENDTAB
  0
TABLE
  2
UCS
  5
7
330
0
100
AcDbSymbolTable
 70
     0
  0
ENDTAB
  0
TABLE
  2
APPID
  5
9
330
0
100
AcDbSymbolTable
 70
     5
  0
APPID
  5
12
330
9
100
AcDbSymbolTableRecord
100
AcDbRegAppTableRecord
  2
ACAD
 70
     0
  0
APPID
  5
395
330
9
100
AcDbSymbolTableRecord
100
AcDbRegAppTableRecord
  2
ENABLE_CUSTOM_SPLIT
 70
     0
  0
APPID
  5
398
330
9
100
AcDbSymbolTableRecord
100
AcDbRegAppTableRecord
  2
FX_DIMP_FAV_VERSION
 70
     0
  0
APPID
  5
39A
330
9
100
AcDbSymbolTableRecord
100
AcDbRegAppTableRecord
  2
FX_DIMP_RECENT_VERSION
 70
     0
  0
APPID
  5
5F2
330
9
100
AcDbSymbolTableRecord
100
AcDbRegAppTableRecord
  2
ACAECLAYERSTANDARD
 70
     0
  0
ENDTAB
  0
TABLE
  2
DIMSTYLE
  5
A
330
0
100
AcDbSymbolTable
 70
     1
  0
DIMSTYLE
105
27
330
A
100
AcDbSymbolTableRecord
100
AcDbDimStyleTableRecord
  2
STANDARD
 70
     0
  3

  4

  5

  6

  7

 40
1.0
 41
0.18
 42
0.0625
 43
0.38
 44
0.18
 45
0.0
 46
0.0
 47
0.0
 48
0.0
140
0.18
141
0.09
142
0.0
143
25.4
144
1.0
145
0.0
146
1.0
147
0.09
 71
     0
 72
     0
 73
     1
 74
     1
 75
     0
 76
     0
 77
     0
 78
     0
170
     0
171
     2
172
     0
173
     0
174
     0
175
     0
176
     0
177
     0
178
     0
270
     2
271
     4
272
     4
273
     2
274
     2
340
11
275
     0
280
     0
281
     0
282
     0
283
     1
284
     0
285
     0
286
     0
287
     3
288
     0
  0
ENDTAB
  0
TABLE
  2
BLOCK_RECORD
  5
1
330
0
100
AcDbSymbolTable
 70
    26
  0
BLOCK_RECORD
  5
1F
102
{ACAD_XDICTIONARY
360
208
102
}
330
1
100
AcDbSymbolTableRecord
100
AcDbBlockTableRecord
  2
*MODEL_SPACE
  0
BLOCK_RECORD
  5
1B
330
1
100
AcDbSymbolTableRecord
100
AcDbBlockTableRecord
  2
*PAPER_SPACE
  0
BLOCK_RECORD
  5
23
330
1
100
AcDbSymbolTableRecord
100
AcDbBlockTableRecord
  2
*PAPER_SPACE0
  0
BLOCK_RECORD
  5
45
330
1
100
AcDbSymbolTableRecord
100
AcDbBlockTableRecord
  2
BLOCK_2
  0
BLOCK_RECORD
  5
923
330
1
100
AcDbSymbolTableRecord
100
AcDbBlockTableRecord
  2
*D2
  0
BLOCK_RECORD
  5
95C
102
{ACAD_XDICTIONARY
360
FAB
102
}
330
1
100
AcDbSymbolTableRecord
100
AcDbBlockTableRecord
  2
FRAME_SIZE_TAB
  0
BLOCK_RECORD
  5
963
102
{ACAD_XDICTIONARY
360
9C9
102
}
330
1
100
AcDbSymbolTableRecord
100
AcDbBlockTableRecord
  2
FRAME_SIZE_BUCKLE
  0
BLOCK_RECORD
  5
A73
330
1
100
AcDbSymbolTableRecord
100
AcDbBlockTableRecord
  2
*D5
  0
BLOCK_RECORD
  5
A85
330
1
100
AcDbSymbolTableRecord
100
AcDbBlockTableRecord
  2
*D6
  0
BLOCK_RECORD
  5
A96
330
1
100
AcDbSymbolTableRecord
100
AcDbBlockTableRecord
  2
*D7
  0
BLOCK_RECORD
  5
AA7
330
1
100
AcDbSymbolTableRecord
100
AcDbBlockTableRecord
  2
*D8
  0
BLOCK_RECORD
  5
B4F
330
1
100
AcDbSymbolTableRecord
100
AcDbBlockTableRecord
  2
*D9
  0
BLOCK_RECORD
  5
B61
330
1
100
AcDbSymbolTableRecord
100
AcDbBlockTableRecord
  2
*D10
  0
BLOCK_RECORD
  5
B8B
330
1
100
AcDbSymbolTableRecord
100
AcDbBlockTableRecord
  2
*D11
  0
BLOCK_RECORD
  5
B9D
330
1
100
AcDbSymbolTableRecord
100
AcDbBlockTableRecord
  2
*D12
  0
BLOCK_RECORD
  5
BAC
102
{ACAD_XDICTIONARY
360
129C
102
}
330
1
100
AcDbSymbolTableRecord
100
AcDbBlockTableRecord
  2
HEADSTRAP_CATCH_SLOT
  0
BLOCK_RECORD
  5
BDD
330
1
100
AcDbSymbolTableRecord
100
AcDbBlockTableRecord
  2
*D14
  0
BLOCK_RECORD
  5
BF7
102
{ACAD_XDICTIONARY
360
C1F
102
}
330
1
100
AcDbSymbolTableRecord
100
AcDbBlockTableRecord
  2
BROW_BAND_TAB
  0
BLOCK_RECORD
  5
C2A
330
1
100
AcDbSymbolTableRecord
100
AcDbBlockTableRecord
  2
*D16
  0
BLOCK_RECORD
  5
DCD
102
{ACAD_XDICTIONARY
360
FA6
102
}
330
1
100
AcDbSymbolTableRecord
100
AcDbBlockTableRecord
  2
HEADSTRAP
  0
BLOCK_RECORD
  5
FB4
330
1
100
AcDbSymbolTableRecord
100
AcDbBlockTableRecord
  2
*D18
  0
BLOCK_RECORD
  5
FC5
330
1
100
AcDbSymbolTableRecord
100
AcDbBlockTableRecord
  2
*D19
  0
BLOCK_RECORD
  5
FED
102
{ACAD_XDICTIONARY
360
10AB
102
}
330
1
100
AcDbSymbolTableRecord
100
AcDbBlockTableRecord
  2
FACEPLATE_WITH_HOOD
  0
BLOCK_RECORD
  5
116B
330
1
100
AcDbSymbolTableRecord
100
AcDbBlockTableRecord
  2
HEADSTRAP_CATCH_TAB
  0
BLOCK_RECORD
  5
1222
330
1
100
AcDbSymbolTableRecord
100
AcDbBlockTableRecord
  2
*D22
  0
BLOCK_RECORD
  5
1233
330
1
100
AcDbSymbolTableRecord
100
AcDbBlockTableRecord
  2
*D23
  0
BLOCK_RECORD
  5
14BF
330
1
100
AcDbSymbolTableRecord
100
AcDbBlockTableRecord
  2
*D24
  0
BLOCK_RECORD
  5
14D0
330
1
100
AcDbSymbolTableRecord
100
AcDbBlockTableRecord
  2
*D25
  0
ENDTAB
  0
ENDSEC
  0
SECTION
  2
BLOCKS
  0
BLOCK
  5
20
330
1F
100
AcDbEntity
  8
0
100
AcDbBlockBegin
  2
*MODEL_SPACE
 70
     0
 10
0.0
 20
0.0
 30
0.0
  3
*MODEL_SPACE
  1

  0
ENDBLK
  5
21
330
1F
100
AcDbEntity
  8
0
100
AcDbBlockEnd
  0
BLOCK
  5
1C
330
1B
100
AcDbEntity
 67
     1
  8
0
100
AcDbBlockBegin
  2
*PAPER_SPACE
 70
     0
 10
0.0
 20
0.0
 30
0.0
  3
*PAPER_SPACE
  1

  0
ENDBLK
  5
1D
330
1B
100
AcDbEntity
 67
     1
  8
0
100
AcDbBlockEnd
  0
BLOCK
  5
24
330
23
100
AcDbEntity
  8
0
100
AcDbBlockBegin
  2
*PAPER_SPACE0
 70
     0
 10
0.0
 20
0.0
 30
0.0
  3
*PAPER_SPACE0
  1

  0
ENDBLK
  5
25
330
23
100
AcDbEntity
  8
0
100
AcDbBlockEnd
  0
BLOCK
  5
47
330
45
100
AcDbEntity
  8
0
100
AcDbBlockBegin
  2
BLOCK_2
 70
     0
 10
0.0
 20
0.0
 30
0.0
  3
BLOCK_2
  1

  0
SPLINE
  5
49
330
45
100
AcDbEntity
  8
CONSTRUCTION
 62
     1
100
AcDbSpline
210
0.0
220
0.0
230
1.0
 70
     8
 71
     3
 72
    38
 73
    34
 74
     0
 42
0.000000001
 43
0.0000000001
 40
0.0
 40
0.0
 40
0.0
 40
0.0
 40
1.0
 40
1.0
 40
1.0
 40
2.0
 40
2.0
 40
2.0
 40
3.0
 40
3.0
 40
3.0
 40
4.0
 40
4.0
 40
4.0
 40
5.0
 40
5.0
 40
5.0
 40
6.0
 40
6.0
 40
6.0
 40
7.0
 40
7.0
 40
7.0
 40
8.0
 40
8.0
 40
8.0
 40
9.0
 40
9.0
 40
9.0
 40
10.0
 40
10.0
 40
10.0
 40
11.0
 40
11.0
 40
11.0
 40
11.0
 10
579.2611109662959
 20
283.1344630544158
 30
0.0
 10
579.2611109662959
 20
283.1344630544158
 30
0.0
 10
579.2611109662959
 20
167.5694444025521
 30
0.0
 10
579.2611109662959
 20
167.5694444025521
 30
0.0
 10
579.2611109662959
 20
148.3192745493934
 30
0.0
 10
565.6795193030247
 20
124.5939465435658
 30
0.0
 10
549.0800195849522
 20
114.8460617922551
 30
0.0
 10
549.0800195849522
 20
114.8460617922551
 30
0.0
 10
444.1144843334157
 20
53.20777753144539
 30
0.0
 10
444.1144843334157
 20
53.20777753144539
 30
0.0
 10
427.5149846153438
 20
43.45989278013465
 30
0.0
 10
398.1834526782322
 20
35.48446937249354
 30
0.0
 10
378.9336393497108
 20
35.48446937249354
 30
0.0
 10
378.9336393497108
 20
35.48446937249354
 30
0.0
 10
338.0362088759778
 20
35.48446937249354
 30
0.0
 10
338.0362088759778
 20
35.48446937249354
 30
0.0
 10
338.0362088759778
 20
35.48446937249354
 30
0.0
 10
268.036350661823
 20
35.48446937249354
 30
0.0
 10
268.036350661823
 20
35.48446937249354
 30
0.0
 10
268.036350661823
 20
35.48446937249354
 30
0.0
 10
220.7884007561075
 20
35.48446937249354
 30
0.0
 10
220.7884007561075
 20
35.48446937249354
 30
0.0
 10
201.5387693940598
 20
35.48446937249354
 30
0.0
 10
172.2070610680593
 20
43.45989278013465
 30
0.0
 10
155.6077338078938
 20
53.20777753144539
 30
0.0
 10
155.6077338078938
 20
53.20777753144539
 30
0.0
 10
50.64188370801791
 20
114.8460617922551
 30
0.0
 10
50.64188370801791
 20
114.8460617922551
 30
0.0
 10
34.04270276926703
 20
124.5939465435658
 30
0.0
 10
20.46111110599583
 20
148.3192745493934
 30
0.0
 10
20.46111110599583
 20
167.5694444025521
 30
0.0
 10
20.46111110599583
 20
167.5694444025521
 30
0.0
 10
20.46111110599583
 20
283.1344630544158
 30
0.0
 10
20.46111110599583
 20
283.1344630544158
 30
0.0
  0
ENDBLK
  5
48
330
45
100
AcDbEntity
  8
0
100
AcDbBlockEnd
  0
BLOCK
  5
924
330
923
100
AcDbEntity
  8
0
100
AcDbBlockBegin
  2
*D2
 70
     1
 10
0.0
 20
0.0
 30
0.0
  3
*D2
  1

  0
LINE
  5
926
330
923
100
AcDbEntity
  8
DIMENSIONS
 62
     0
100
AcDbLine
 10
18.70158744081215
 20
383.9476920894069
 30
0.0
 11
18.70158744081209
 21
464.9471893945787
 31
0.0
  0
LINE
  5
927
330
923
100
AcDbEntity
  8
DIMENSIONS
 62
     0
100
AcDbLine
 10
707.6102672376189
 20
379.4470713970266
 30
0.0
 11
707.6102672376189
 21
464.9471893945787
 31
0.0
  0
LINE
  5
928
330
923
100
AcDbEntity
  8
DIMENSIONS
 62
     0
100
AcDbLine
 10
22.30158744081209
 20
461.3471893945787
 30
0.0
 11
349.0559273392155
 21
461.3471893945787
 31
0.0
  0
LINE
  5
929
330
923
100
AcDbEntity
  8
DIMENSIONS
 62
     0
100
AcDbLine
 10
704.0102672376189
 20
461.3471893945787
 30
0.0
 11
377.2559273392155
 21
461.3471893945787
 31
0.0
  0
SOLID
  5
92A
330
923
100
AcDbEntity
  8
DIMENSIONS
 62
     0
100
AcDbTrace
 10
22.30158744081209
 20
461.9471893945787
 30
0.0
 11
22.30158744081209
 21
460.7471893945786
 31
0.0
 12
18.70158744081209
 22
461.3471893945787
 32
0.0
 13
18.70158744081209
 23
461.3471893945787
 33
0.0
  0
SOLID
  5
92B
330
923
100
AcDbEntity
  8
DIMENSIONS
 62
     0
100
AcDbTrace
 10
704.0102672376189
 20
460.7471893945786
 30
0.0
 11
704.0102672376189
 21
461.9471893945787
 31
0.0
 12
707.6102672376189
 22
461.3471893945787
 32
0.0
 13
707.6102672376189
 23
461.3471893945787
 33
0.0
  0
MTEXT
  5
92C
330
923
100
AcDbEntity
  8
DIMENSIONS
 62
     0
100
AcDbMText
 10
363.1559273392155
 20
461.3471893945787
 30
0.0
 40
3.6
 41
0.0
 71
     5
 72
     1
  1
\A1;688.9087
  0
POINT
  5
92D
330
923
100
AcDbEntity
  8
DEFPOINTS
 62
     0
100
AcDbPoint
 10
18.70158744081215
 20
382.6976920894069
 30
0.0
  0
POINT
  5
92E
330
923
100
AcDbEntity
  8
DEFPOINTS
 62
     0
100
AcDbPoint
 10
707.6102672376189
 20
378.1970713970266
 30
0.0
  0
POINT
  5
92F
330
923
100
AcDbEntity
  8
DEFPOINTS
 62
     0
100
AcDbPoint
 10
707.6102672376189
 20
461.3471893945787
 30
0.0
  0
ENDBLK
  5
925
330
923
100
AcDbEntity
  8
0
100
AcDbBlockEnd
  0
BLOCK
  5
960
330
95C
100
AcDbEntity
  8
0
100
AcDbBlockBegin
  2
FRAME_SIZE_TAB
 70
     0
 10
0.0
 20
0.0
 30
0.0
  3
FRAME_SIZE_TAB
  1

  0
CIRCLE
  5
95D
330
95C
100
AcDbEntity
  8
CUTTING
100
AcDbCircle
 10
683.1073076440052
 20
377.6970713970267
 30
0.0
 40
0.5
  0
CIRCLE
  5
95E
330
95C
100
AcDbEntity
  8
CUTTING
100
AcDbCircle
 10
683.1073076440052
 20
365.6970713970267
 30
0.0
 40
0.5
  0
LINE
  5
121B
330
95C
100
AcDbEntity
  8
CUTTING
100
AcDbLine
 10
683.1073076440052
 20
377.1970713970268
 30
0.0
 11
683.1073076440052
 21
366.1970713970267
 31
0.0
  0
ENDBLK
  5
961
330
95C
100
AcDbEntity
  8
0
100
AcDbBlockEnd
  0
BLOCK
  5
988
330
963
100
AcDbEntity
  8
0
100
AcDbBlockBegin
  2
FRAME_SIZE_BUCKLE
 70
     0
 10
0.0
 20
0.0
 30
0.0
  3
FRAME_SIZE_BUCKLE
  1

  0
LINE
  5
964
330
963
100
AcDbEntity
  8
CUTTING
100
AcDbLine
 10
-7.29829669556406
 20
376.6971893945787
 30
0.0
 11
-7.298180831940263
 21
366.6977209867582
 31
0.0
  0
LINE
  5
965
330
963
100
AcDbEntity
  8
CUTTING
 62
     1
100
AcDbLine
 10
3.701587440812147
 20
382.6976920894069
 30
0.0
 11
4.703729774047757
 21
382.6976920894069
 31
0.0
  0
LINE
  5
966
330
963
100
AcDbEntity
  8
CUTTING
 62
     1
100
AcDbLine
 10
5.703729774047757
 20
381.6976920894069
 30
0.0
 11
5.703729774047757
 21
361.6964507046463
 31
0.0
  0
LINE
  5
967
330
963
100
AcDbEntity
  8
CUTTING
 62
     1
100
AcDbLine
 10
4.703729774047757
 20
360.6964507046463
 30
0.0
 11
3.701587440812147
 21
360.6964507046463
 31
0.0
  0
LINE
  5
968
330
963
100
AcDbEntity
  8
CUTTING
 62
     1
100
AcDbLine
 10
2.701587440812147
 20
361.6964507046463
 30
0.0
 11
2.701587440812147
 21
381.6976920894069
 31
0.0
  0
ARC
  5
969
330
963
100
AcDbEntity
  8
CUTTING
 62
     1
100
AcDbCircle
 10
3.701587440812147
 20
381.6976920894069
 30
0.0
 40
1.0
100
AcDbArc
 50
90.0
 51
180.0
  0
ARC
  5
96A
330
963
100
AcDbEntity
  8
CUTTING
 62
     1
100
AcDbCircle
 10
3.701587440812147
 20
361.6964507046463
 30
0.0
 40
1.0
100
AcDbArc
 50
180.0
 51
270.0
  0
ARC
  5
96B
330
963
100
AcDbEntity
  8
CUTTING
 62
     1
100
AcDbCircle
 10
4.703729774047757
 20
361.6964507046463
 30
0.0
 40
1.0
100
AcDbArc
 50
270.0
 51
0.0
  0
ARC
  5
96C
330
963
100
AcDbEntity
  8
CUTTING
 62
     1
100
AcDbCircle
 10
4.703729774047757
 20
381.6976920894069
 30
0.0
 40
1.0
100
AcDbArc
 50
0.0
 51
90.0
  0
LINE
  5
96D
330
963
100
AcDbEntity
  8
CUTTING
 62
     1
100
AcDbLine
 10
18.70158744081215
 20
382.6976920894069
 30
0.0
 11
19.70372977404776
 21
382.6976920894069
 31
0.0
  0
ARC
  5
96E
330
963
100
AcDbEntity
  8
CUTTING
 62
     1
100
AcDbCircle
 10
18.70158744081215
 20
381.6976920894069
 30
0.0
 40
1.0
100
AcDbArc
 50
90.0
 51
180.0
  0
ARC
  5
96F
330
963
100
AcDbEntity
  8
CUTTING
 62
     1
100
AcDbCircle
 10
19.70372977404776
 20
381.6976920894069
 30
0.0
 40
1.0
100
AcDbArc
 50
0.0
 51
90.0
  0
CIRCLE
  5
970
330
963
100
AcDbEntity
  8
CUTTING
100
AcDbCircle
 10
17.70158744081215
 20
377.6970713970266
 30
0.0
 40
0.5
  0
CIRCLE
  5
971
330
963
100
AcDbEntity
  8
CUTTING
100
AcDbCircle
 10
17.70158744081215
 20
365.6970713970266
 30
0.0
 40
0.5
  0
LINE
  5
972
330
963
100
AcDbEntity
  8
CUTTING
 62
     1
100
AcDbLine
 10
20.70372977404776
 20
381.6009238588363
 30
0.0
 11
20.70372977404776
 21
381.6009238588363
 31
0.0
  0
LINE
  5
973
330
963
100
AcDbEntity
  8
CUTTING
 62
     1
100
AcDbLine
 10
17.70158744081215
 20
378.1970713970266
 30
0.0
 11
17.70158744081215
 21
381.6976920894069
 31
0.0
  0
ELLIPSE
  5
974
330
963
100
AcDbEntity
  8
CUTTING
100
AcDbEllipse
 10
17.70158744081215
 20
371.6970713970266
 30
0.0
 11
-9.0
 21
0.0
 31
0.0
210
0.0
220
0.0
230
-1.0
 40
0.6666666666666666
 41
1.62637095034883
 42
4.656814356830757
  0
LINE
  5
976
330
963
100
AcDbEntity
  8
CUTTING
100
AcDbLine
 10
29.20158744081215
 20
386.6971893945787
 30
0.0
 11
2.70170330443594
 21
386.6971893945787
 31
0.0
  0
ARC
  5
977
330
963
100
AcDbEntity
  8
CUTTING
100
AcDbCircle
 10
2.70170330443594
 20
376.6971893945787
 30
0.0
 40
10.0
100
AcDbArc
 50
89.99999999999999
 51
180.0
  0
ARC
  5
97C
330
963
100
AcDbEntity
  8
CUTTING
100
AcDbCircle
 10
2.70181916386474
 20
366.6980106415454
 30
0.0
 40
9.999999999999998
100
AcDbArc
 50
180.0016595996821
 51
270.0016595996822
  0
LINE
  5
97F
330
963
100
AcDbEntity
  8
CUTTING
100
AcDbLine
 10
21.38689328875034
 20
379.6950726840603
 30
0.0
 11
25.59283562437497
 21
374.5821442522913
 31
0.0
  0
ARC
  5
980
330
963
100
AcDbEntity
  8
CUTTING
100
AcDbCircle
 10
23.70372977404775
 20
381.6009238588363
 30
0.0
 40
2.999999999999996
100
AcDbArc
 50
180.0
 51
219.4410309917426
  0
LINE
  5
981
330
963
100
AcDbEntity
  8
CUTTING
 62
     1
100
AcDbLine
 10
18.70158744081215
 20
360.6964507046463
 30
0.0
 11
19.70372977404776
 21
360.6964507046463
 31
0.0
  0
ARC
  5
982
330
963
100
AcDbEntity
  8
CUTTING
 62
     1
100
AcDbCircle
 10
18.70158744081215
 20
361.6964507046463
 30
0.0
 40
1.0
100
AcDbArc
 50
180.0
 51
270.0
  0
ARC
  5
983
330
963
100
AcDbEntity
  8
CUTTING
 62
     1
100
AcDbCircle
 10
19.70372977404776
 20
361.6964507046463
 30
0.0
 40
1.0
100
AcDbArc
 50
270.0
 51
0.0
  0
LINE
  5
984
330
963
100
AcDbEntity
  8
CUTTING
 62
     1
100
AcDbLine
 10
20.70372977404776
 20
361.6964507046463
 30
0.0
 11
20.70372977404776
 21
361.7932189352169
 31
0.0
  0
LINE
  5
985
330
963
100
AcDbEntity
  8
CUTTING
 62
     1
100
AcDbLine
 10
17.70158744081215
 20
365.1970713970266
 30
0.0
 11
17.70158744081215
 21
361.6964507046463
 31
0.0
  0
LINE
  5
986
330
963
100
AcDbEntity
  8
CUTTING
100
AcDbLine
 10
21.38689328875034
 20
363.6990701099929
 30
0.0
 11
25.59283562437497
 21
368.8119985417619
 31
0.0
  0
ARC
  5
987
330
963
100
AcDbEntity
  8
CUTTING
100
AcDbCircle
 10
23.70372977404775
 20
361.7932189352169
 30
0.0
 40
2.999999999999996
100
AcDbArc
 50
140.5589690082573
 51
180.0
  0
LINE
  5
9C8
330
963
100
AcDbEntity
  8
CUTTING
100
AcDbLine
 10
29.202021911099
 20
356.6980106457403
 30
0.0
 11
2.70181916075609
 21
356.6980106415454
 31
0.0
  0
ENDBLK
  5
989
330
963
100
AcDbEntity
  8
0
100
AcDbBlockEnd
  0
BLOCK
  5
A74
330
A73
100
AcDbEntity
  8
0
100
AcDbBlockBegin
  2
*D5
 70
     1
 10
0.0
 20
0.0
 30
0.0
  3
*D5
  1

  0
LINE
  5
A76
330
A73
100
AcDbEntity
  8
DIMENSIONS
 62
     0
100
AcDbLine
 10
401.8501984495737
 20
376.6959480098168
 30
0.0
 11
387.8501984495737
 21
376.6959480098168
 31
0.0
  0
LINE
  5
A77
330
A73
100
AcDbEntity
  8
DIMENSIONS
 62
     0
100
AcDbLine
 10
401.8501984495737
 20
366.6982378479286
 30
0.0
 11
387.8501984495737
 21
366.6982378479286
 31
0.0
  0
LINE
  5
A78
330
A73
100
AcDbEntity
  8
DIMENSIONS
 62
     0
100
AcDbLine
 10
391.4501984495737
 20
380.2959480098168
 30
0.0
 11
391.4501984495737
 21
383.8959480098168
 31
0.0
  0
LINE
  5
A79
330
A73
100
AcDbEntity
  8
DIMENSIONS
 62
     0
100
AcDbLine
 10
391.4501984495737
 20
363.0982378479285
 30
0.0
 11
391.4501984495737
 21
359.4982378479285
 31
0.0
  0
SOLID
  5
A7A
330
A73
100
AcDbEntity
  8
DIMENSIONS
 62
     0
100
AcDbTrace
 10
390.8501984495737
 20
380.2959480098168
 30
0.0
 11
392.0501984495738
 21
380.2959480098168
 31
0.0
 12
391.4501984495737
 22
376.6959480098168
 32
0.0
 13
391.4501984495737
 23
376.6959480098168
 33
0.0
  0
SOLID
  5
A7B
330
A73
100
AcDbEntity
  8
DIMENSIONS
 62
     0
100
AcDbTrace
 10
392.0501984495738
 20
363.0982378479285
 30
0.0
 11
390.8501984495737
 21
363.0982378479285
 31
0.0
 12
391.4501984495737
 22
366.6982378479286
 32
0.0
 13
391.4501984495737
 23
366.6982378479286
 33
0.0
  0
MTEXT
  5
A7C
330
A73
100
AcDbEntity
  8
DIMENSIONS
 62
     0
100
AcDbMText
 10
391.4501984495737
 20
371.6970929288727
 30
0.0
 40
3.6
 41
0.0
 71
     5
 72
     1
  1
\A1;9.9977
  0
POINT
  5
A7D
330
A73
100
AcDbEntity
  8
DEFPOINTS
 62
     0
100
AcDbPoint
 10
403.1001984495737
 20
376.6959480098168
 30
0.0
  0
POINT
  5
A7E
330
A73
100
AcDbEntity
  8
DEFPOINTS
 62
     0
100
AcDbPoint
 10
403.1001984495737
 20
366.6982378479286
 30
0.0
  0
POINT
  5
A7F
330
A73
100
AcDbEntity
  8
DEFPOINTS
 62
     0
100
AcDbPoint
 10
391.4501984495737
 20
366.6982378479286
 30
0.0
  0
ENDBLK
  5
A75
330
A73
100
AcDbEntity
  8
0
100
AcDbBlockEnd
  0
BLOCK
  5
A86
330
A85
100
AcDbEntity
  8
0
100
AcDbBlockBegin
  2
*D6
 70
     1
 10
0.0
 20
0.0
 30
0.0
  3
*D6
  1

  0
LINE
  5
A88
330
A85
100
AcDbEntity
  8
DIMENSIONS
 62
     0
100
AcDbLine
 10
386.851713312243
 20
412.6219079483348
 30
0.0
 11
410.601713312243
 21
412.6219079483348
 31
0.0
  0
LINE
  5
A89
330
A85
100
AcDbEntity
  8
DIMENSIONS
 62
     0
100
AcDbLine
 10
386.351713312243
 20
403.6208459386163
 30
0.0
 11
410.601713312243
 21
403.6208459386163
 31
0.0
  0
LINE
  5
A8A
330
A85
100
AcDbEntity
  8
DIMENSIONS
 62
     0
100
AcDbLine
 10
407.001713312243
 20
416.2219079483348
 30
0.0
 11
407.001713312243
 21
419.8219079483348
 31
0.0
  0
LINE
  5
A8B
330
A85
100
AcDbEntity
  8
DIMENSIONS
 62
     0
100
AcDbLine
 10
407.001713312243
 20
400.0208459386163
 30
0.0
 11
407.001713312243
 21
396.4208459386163
 31
0.0
  0
SOLID
  5
A8C
330
A85
100
AcDbEntity
  8
DIMENSIONS
 62
     0
100
AcDbTrace
 10
406.401713312243
 20
416.2219079483348
 30
0.0
 11
407.601713312243
 21
416.2219079483348
 31
0.0
 12
407.001713312243
 22
412.6219079483348
 32
0.0
 13
407.001713312243
 23
412.6219079483348
 33
0.0
  0
SOLID
  5
A8D
330
A85
100
AcDbEntity
  8
DIMENSIONS
 62
     0
100
AcDbTrace
 10
407.601713312243
 20
400.0208459386163
 30
0.0
 11
406.401713312243
 21
400.0208459386163
 31
0.0
 12
407.001713312243
 22
403.6208459386163
 32
0.0
 13
407.001713312243
 23
403.6208459386163
 33
0.0
  0
MTEXT
  5
A8E
330
A85
100
AcDbEntity
  8
DIMENSIONS
 62
     0
100
AcDbMText
 10
407.001713312243
 20
408.1213769434755
 30
0.0
 40
3.6
 41
0.0
 71
     5
 72
     1
  1
\A1;9.0011
  0
POINT
  5
A8F
330
A85
100
AcDbEntity
  8
DEFPOINTS
 62
     0
100
AcDbPoint
 10
385.601713312243
 20
412.6219079483348
 30
0.0
  0
POINT
  5
A90
330
A85
100
AcDbEntity
  8
DEFPOINTS
 62
     0
100
AcDbPoint
 10
385.101713312243
 20
403.6208459386163
 30
0.0
  0
POINT
  5
A91
330
A85
100
AcDbEntity
  8
DEFPOINTS
 62
     0
100
AcDbPoint
 10
407.001713312243
 20
403.6208459386163
 30
0.0
  0
ENDBLK
  5
A87
330
A85
100
AcDbEntity
  8
0
100
AcDbBlockEnd
  0
BLOCK
  5
A97
330
A96
100
AcDbEntity
  8
0
100
AcDbBlockBegin
  2
*D7
 70
     1
 10
0.0
 20
0.0
 30
0.0
  3
*D7
  1

  0
LINE
  5
A99
330
A96
100
AcDbEntity
  8
DIMENSIONS
 62
     0
100
AcDbLine
 10
386.101713312243
 20
414.8719079483348
 30
0.0
 11
386.101713312243
 21
432.623784779139
 31
0.0
  0
LINE
  5
A9A
330
A96
100
AcDbEntity
  8
DIMENSIONS
 62
     0
100
AcDbLine
 10
363.101713312243
 20
414.3719079483348
 30
0.0
 11
363.101713312243
 21
432.623784779139
 31
0.0
  0
LINE
  5
A9B
330
A96
100
AcDbEntity
  8
DIMENSIONS
 62
     0
100
AcDbLine
 10
389.701713312243
 20
429.023784779139
 30
0.0
 11
393.3017133122431
 21
429.023784779139
 31
0.0
  0
LINE
  5
A9C
330
A96
100
AcDbEntity
  8
DIMENSIONS
 62
     0
100
AcDbLine
 10
359.501713312243
 20
429.023784779139
 30
0.0
 11
355.901713312243
 21
429.023784779139
 31
0.0
  0
SOLID
  5
A9D
330
A96
100
AcDbEntity
  8
DIMENSIONS
 62
     0
100
AcDbTrace
 10
389.701713312243
 20
429.623784779139
 30
0.0
 11
389.701713312243
 21
428.4237847791389
 31
0.0
 12
386.101713312243
 22
429.023784779139
 32
0.0
 13
386.101713312243
 23
429.023784779139
 33
0.0
  0
SOLID
  5
A9E
330
A96
100
AcDbEntity
  8
DIMENSIONS
 62
     0
100
AcDbTrace
 10
359.501713312243
 20
428.4237847791389
 30
0.0
 11
359.501713312243
 21
429.623784779139
 31
0.0
 12
363.101713312243
 22
429.023784779139
 32
0.0
 13
363.101713312243
 23
429.023784779139
 33
0.0
  0
MTEXT
  5
A9F
330
A96
100
AcDbEntity
  8
DIMENSIONS
 62
     0
100
AcDbMText
 10
374.601713312243
 20
429.023784779139
 30
0.0
 40
3.6
 41
0.0
 71
     5
 72
     1
  1
\A1;23.0000
  0
POINT
  5
AA0
330
A96
100
AcDbEntity
  8
DEFPOINTS
 62
     0
100
AcDbPoint
 10
386.101713312243
 20
413.6219079483348
 30
0.0
  0
POINT
  5
AA1
330
A96
100
AcDbEntity
  8
DEFPOINTS
 62
     0
100
AcDbPoint
 10
363.101713312243
 20
413.1219079483348
 30
0.0
  0
POINT
  5
AA2
330
A96
100
AcDbEntity
  8
DEFPOINTS
 62
     0
100
AcDbPoint
 10
363.101713312243
 20
429.023784779139
 30
0.0
  0
ENDBLK
  5
A98
330
A96
100
AcDbEntity
  8
0
100
AcDbBlockEnd
  0
BLOCK
  5
AA8
330
AA7
100
AcDbEntity
  8
0
100
AcDbBlockBegin
  2
*D8
 70
     1
 10
0.0
 20
0.0
 30
0.0
  3
*D8
  1

  0
LINE
  5
AAA
330
AA7
100
AcDbEntity
  8
DIMENSIONS
 62
     0
100
AcDbLine
 10
428.1034346626922
 20
376.9494792326892
 30
0.0
 11
428.1034346626922
 21
394.6994792326892
 31
0.0
  0
LINE
  5
AAB
330
AA7
100
AcDbEntity
  8
DIMENSIONS
 62
     0
100
AcDbLine
 10
405.1023407828076
 20
376.9459480098168
 30
0.0
 11
405.1023407828076
 21
394.6994792326892
 31
0.0
  0
LINE
  5
AAC
330
AA7
100
AcDbEntity
  8
DIMENSIONS
 62
     0
100
AcDbLine
 10
431.7034346626922
 20
391.0994792326892
 30
0.0
 11
435.3034346626923
 21
391.0994792326892
 31
0.0
  0
LINE
  5
AAD
330
AA7
100
AcDbEntity
  8
DIMENSIONS
 62
     0
100
AcDbLine
 10
401.5023407828076
 20
391.0994792326892
 30
0.0
 11
397.9023407828076
 21
391.0994792326892
 31
0.0
  0
SOLID
  5
AAE
330
AA7
100
AcDbEntity
  8
DIMENSIONS
 62
     0
100
AcDbTrace
 10
431.7034346626922
 20
391.6994792326892
 30
0.0
 11
431.7034346626922
 21
390.4994792326892
 31
0.0
 12
428.1034346626922
 22
391.0994792326892
 32
0.0
 13
428.1034346626922
 23
391.0994792326892
 33
0.0
  0
SOLID
  5
AAF
330
AA7
100
AcDbEntity
  8
DIMENSIONS
 62
     0
100
AcDbTrace
 10
401.5023407828076
 20
390.4994792326892
 30
0.0
 11
401.5023407828076
 21
391.6994792326892
 31
0.0
 12
405.1023407828076
 22
391.0994792326892
 32
0.0
 13
405.1023407828076
 23
391.0994792326892
 33
0.0
  0
MTEXT
  5
AB0
330
AA7
100
AcDbEntity
  8
DIMENSIONS
 62
     0
100
AcDbMText
 10
416.6028877227499
 20
391.0994792326892
 30
0.0
 40
3.6
 41
0.0
 71
     5
 72
     1
  1
\A1;23.0011
  0
POINT
  5
AB1
330
AA7
100
AcDbEntity
  8
DEFPOINTS
 62
     0
100
AcDbPoint
 10
428.1034346626922
 20
371.6988585403089
 30
0.0
  0
POINT
  5
AB2
330
AA7
100
AcDbEntity
  8
DEFPOINTS
 62
     0
100
AcDbPoint
 10
405.1023407828076
 20
371.6970929288727
 30
0.0
  0
POINT
  5
AB3
330
AA7
100
AcDbEntity
  8
DEFPOINTS
 62
     0
100
AcDbPoint
 10
405.1023407828076
 20
391.0994792326892
 30
0.0
  0
ENDBLK
  5
AA9
330
AA7
100
AcDbEntity
  8
0
100
AcDbBlockEnd
  0
BLOCK
  5
B50
330
B4F
100
AcDbEntity
  8
0
100
AcDbBlockBegin
  2
*D9
 70
     1
 10
0.0
 20
0.0
 30
0.0
  3
*D9
  1

  0
LINE
  5
B52
330
B4F
100
AcDbEntity
  8
DIMENSIONS
 62
     0
100
AcDbLine
 10
158.1014614296809
 20
413.8719079483348
 30
0.0
 11
158.1014614296809
 21
440.3719079483348
 31
0.0
  0
LINE
  5
B53
330
B4F
100
AcDbEntity
  8
DIMENSIONS
 62
     0
100
AcDbLine
 10
386.101713312243
 20
413.8719079483348
 30
0.0
 11
386.101713312243
 21
440.3719079483348
 31
0.0
  0
LINE
  5
B54
330
B4F
100
AcDbEntity
  8
DIMENSIONS
 62
     0
100
AcDbLine
 10
161.7014614296809
 20
436.7719079483347
 30
0.0
 11
258.601587370962
 21
436.7719079483347
 31
0.0
  0
LINE
  5
B55
330
B4F
100
AcDbEntity
  8
DIMENSIONS
 62
     0
100
AcDbLine
 10
382.501713312243
 20
436.7719079483347
 30
0.0
 11
285.601587370962
 21
436.7719079483347
 31
0.0
  0
SOLID
  5
B56
330
B4F
100
AcDbEntity
  8
DIMENSIONS
 62
     0
100
AcDbTrace
 10
161.7014614296809
 20
437.3719079483348
 30
0.0
 11
161.7014614296809
 21
436.1719079483347
 31
0.0
 12
158.1014614296809
 22
436.7719079483347
 32
0.0
 13
158.1014614296809
 23
436.7719079483347
 33
0.0
  0
SOLID
  5
B57
330
B4F
100
AcDbEntity
  8
DIMENSIONS
 62
     0
100
AcDbTrace
 10
382.501713312243
 20
436.1719079483347
 30
0.0
 11
382.501713312243
 21
437.3719079483348
 31
0.0
 12
386.101713312243
 22
436.7719079483347
 32
0.0
 13
386.101713312243
 23
436.7719079483347
 33
0.0
  0
MTEXT
  5
B58
330
B4F
100
AcDbEntity
  8
DIMENSIONS
 62
     0
100
AcDbMText
 10
272.101587370962
 20
436.7719079483347
 30
0.0
 40
3.6
 41
0.0
 71
     5
 72
     1
  1
\A1;228.0003
  0
POINT
  5
B59
330
B4F
100
AcDbEntity
  8
DEFPOINTS
 62
     0
100
AcDbPoint
 10
158.1014614296809
 20
412.6219079483348
 30
0.0
  0
POINT
  5
B5A
330
B4F
100
AcDbEntity
  8
DEFPOINTS
 62
     0
100
AcDbPoint
 10
386.101713312243
 20
412.6219079483348
 30
0.0
  0
POINT
  5
B5B
330
B4F
100
AcDbEntity
  8
DEFPOINTS
 62
     0
100
AcDbPoint
 10
386.101713312243
 20
436.7719079483347
 30
0.0
  0
ENDBLK
  5
B51
330
B4F
100
AcDbEntity
  8
0
100
AcDbBlockEnd
  0
BLOCK
  5
B62
330
B61
100
AcDbEntity
  8
0
100
AcDbBlockBegin
  2
*D10
 70
     1
 10
0.0
 20
0.0
 30
0.0
  3
*D10
  1

  0
LINE
  5
B64
330
B61
100
AcDbEntity
  8
DIMENSIONS
 62
     0
100
AcDbLine
 10
119.1018824124673
 20
366.4482378479286
 30
0.0
 11
119.1018824124673
 21
346.1982378479286
 31
0.0
  0
LINE
  5
B65
330
B61
100
AcDbEntity
  8
DIMENSIONS
 62
     0
100
AcDbLine
 10
402.1001984495737
 20
366.4482378479286
 30
0.0
 11
402.1001984495737
 21
346.1982378479286
 31
0.0
  0
LINE
  5
B66
330
B61
100
AcDbEntity
  8
DIMENSIONS
 62
     0
100
AcDbLine
 10
122.7018824124673
 20
349.7982378479286
 30
0.0
 11
246.2010404310205
 21
349.7982378479286
 31
0.0
  0
LINE
  5
B67
330
B61
100
AcDbEntity
  8
DIMENSIONS
 62
     0
100
AcDbLine
 10
398.5001984495737
 20
349.7982378479286
 30
0.0
 11
275.0010404310206
 21
349.7982378479286
 31
0.0
  0
SOLID
  5
B68
330
B61
100
AcDbEntity
  8
DIMENSIONS
 62
     0
100
AcDbTrace
 10
122.7018824124673
 20
350.3982378479286
 30
0.0
 11
122.7018824124673
 21
349.1982378479286
 31
0.0
 12
119.1018824124673
 22
349.7982378479286
 32
0.0
 13
119.1018824124673
 23
349.7982378479286
 33
0.0
  0
SOLID
  5
B69
330
B61
100
AcDbEntity
  8
DIMENSIONS
 62
     0
100
AcDbTrace
 10
398.5001984495737
 20
349.1982378479286
 30
0.0
 11
398.5001984495737
 21
350.3982378479286
 31
0.0
 12
402.1001984495737
 22
349.7982378479286
 32
0.0
 13
402.1001984495737
 23
349.7982378479286
 33
0.0
  0
MTEXT
  5
B6A
330
B61
100
AcDbEntity
  8
DIMENSIONS
 62
     0
100
AcDbMText
 10
260.6010404310205
 20
349.7982378479286
 30
0.0
 40
3.6
 41
0.0
 71
     5
 72
     1
  1
\A1;282.9983
  0
POINT
  5
B6B
330
B61
100
AcDbEntity
  8
DEFPOINTS
 62
     0
100
AcDbPoint
 10
119.1018824124673
 20
371.6988585403089
 30
0.0
  0
POINT
  5
B6C
330
B61
100
AcDbEntity
  8
DEFPOINTS
 62
     0
100
AcDbPoint
 10
402.1001984495737
 20
371.6970929288727
 30
0.0
  0
POINT
  5
B6D
330
B61
100
AcDbEntity
  8
DEFPOINTS
 62
     0
100
AcDbPoint
 10
402.1001984495737
 20
349.7982378479286
 30
0.0
  0
ENDBLK
  5
B63
330
B61
100
AcDbEntity
  8
0
100
AcDbBlockEnd
  0
BLOCK
  5
B8C
330
B8B
100
AcDbEntity
  8
0
100
AcDbBlockBegin
  2
*D11
 70
     1
 10
0.0
 20
0.0
 30
0.0
  3
*D11
  1

  0
LINE
  5
B8E
330
B8B
100
AcDbEntity
  8
DIMENSIONS
 62
     0
100
AcDbLine
 10
18.70158744081215
 20
382.9476920894069
 30
0.0
 11
18.70158744081215
 21
453.4476920894069
 31
0.0
  0
LINE
  5
B8F
330
B8B
100
AcDbEntity
  8
DIMENSIONS
 62
     0
100
AcDbLine
 10
527.6102672376189
 20
379.4470713970265
 30
0.0
 11
527.6102672376189
 21
453.4476920894069
 31
0.0
  0
LINE
  5
B90
330
B8B
100
AcDbEntity
  8
DIMENSIONS
 62
     0
100
AcDbLine
 10
22.30158744081215
 20
449.8476920894069
 30
0.0
 11
259.3559273392156
 21
449.8476920894069
 31
0.0
  0
LINE
  5
B91
330
B8B
100
AcDbEntity
  8
DIMENSIONS
 62
     0
100
AcDbLine
 10
524.0102672376189
 20
449.8476920894069
 30
0.0
 11
286.9559273392156
 21
449.8476920894069
 31
0.0
  0
SOLID
  5
B92
330
B8B
100
AcDbEntity
  8
DIMENSIONS
 62
     0
100
AcDbTrace
 10
22.30158744081215
 20
450.4476920894069
 30
0.0
 11
22.30158744081215
 21
449.2476920894069
 31
0.0
 12
18.70158744081215
 22
449.8476920894069
 32
0.0
 13
18.70158744081215
 23
449.8476920894069
 33
0.0
  0
SOLID
  5
B93
330
B8B
100
AcDbEntity
  8
DIMENSIONS
 62
     0
100
AcDbTrace
 10
524.0102672376189
 20
449.2476920894069
 30
0.0
 11
524.0102672376189
 21
450.4476920894069
 31
0.0
 12
527.6102672376189
 22
449.8476920894069
 32
0.0
 13
527.6102672376189
 23
449.8476920894069
 33
0.0
  0
MTEXT
  5
B94
330
B8B
100
AcDbEntity
  8
DIMENSIONS
 62
     0
100
AcDbMText
 10
273.1559273392155
 20
449.8476920894069
 30
0.0
 40
3.6
 41
0.0
 71
     5
 72
     1
  1
\A1;508.9087
  0
POINT
  5
B95
330
B8B
100
AcDbEntity
  8
DEFPOINTS
 62
     0
100
AcDbPoint
 10
18.70158744081215
 20
381.6976920894069
 30
0.0
  0
POINT
  5
B96
330
B8B
100
AcDbEntity
  8
DEFPOINTS
 62
     0
100
AcDbPoint
 10
527.6102672376189
 20
378.1970713970265
 30
0.0
  0
POINT
  5
B97
330
B8B
100
AcDbEntity
  8
DEFPOINTS
 62
     0
100
AcDbPoint
 10
527.6102672376189
 20
449.8476920894069
 30
0.0
  0
ENDBLK
  5
B8D
330
B8B
100
AcDbEntity
  8
0
100
AcDbBlockEnd
  0
BLOCK
  5
B9E
330
B9D
100
AcDbEntity
  8
0
100
AcDbBlockBegin
  2
*D12
 70
     1
 10
0.0
 20
0.0
 30
0.0
  3
*D12
  1

  0
LINE
  5
BA0
330
B9D
100
AcDbEntity
  8
DIMENSIONS
 62
     0
100
AcDbLine
 10
478.3515873011117
 20
342.145952935204
 30
0.0
 11
585.3515873011119
 21
342.145952935204
 31
0.0
  0
LINE
  5
BA1
330
B9D
100
AcDbEntity
  8
DIMENSIONS
 62
     0
100
AcDbLine
 10
360.0421383507418
 20
122.1459529352041
 30
0.0
 11
585.3515873011119
 21
122.1459529352041
 31
0.0
  0
LINE
  5
BA2
330
B9D
100
AcDbEntity
  8
DIMENSIONS
 62
     0
100
AcDbLine
 10
581.7515873011118
 20
338.545952935204
 30
0.0
 11
581.7515873011118
 21
235.7459529352041
 31
0.0
  0
LINE
  5
BA3
330
B9D
100
AcDbEntity
  8
DIMENSIONS
 62
     0
100
AcDbLine
 10
581.7515873011118
 20
125.7459529352041
 30
0.0
 11
581.7515873011118
 21
228.545952935204
 31
0.0
  0
SOLID
  5
BA4
330
B9D
100
AcDbEntity
  8
DIMENSIONS
 62
     0
100
AcDbTrace
 10
582.3515873011119
 20
338.545952935204
 30
0.0
 11
581.1515873011118
 21
338.545952935204
 31
0.0
 12
581.7515873011118
 22
342.145952935204
 32
0.0
 13
581.7515873011118
 23
342.145952935204
 33
0.0
  0
SOLID
  5
BA5
330
B9D
100
AcDbEntity
  8
DIMENSIONS
 62
     0
100
AcDbTrace
 10
581.1515873011118
 20
125.7459529352041
 30
0.0
 11
582.3515873011119
 21
125.7459529352041
 31
0.0
 12
581.7515873011118
 22
122.1459529352041
 32
0.0
 13
581.7515873011118
 23
122.1459529352041
 33
0.0
  0
MTEXT
  5
BA6
330
B9D
100
AcDbEntity
  8
DIMENSIONS
 62
     0
100
AcDbMText
 10
581.7515873011118
 20
232.145952935204
 30
0.0
 40
3.6
 41
0.0
 71
     5
 72
     1
  1
\A1;220.0000
  0
POINT
  5
BA7
330
B9D
100
AcDbEntity
  8
DEFPOINTS
 62
     0
100
AcDbPoint
 10
272.1015873709619
 20
342.145952935204
 30
0.0
  0
POINT
  5
BA8
330
B9D
100
AcDbEntity
  8
DEFPOINTS
 62
     0
100
AcDbPoint
 10
272.1015873709619
 20
122.1459529352041
 30
0.0
  0
POINT
  5
BA9
330
B9D
100
AcDbEntity
  8
DEFPOINTS
 62
     0
100
AcDbPoint
 10
581.7515873011118
 20
122.1459529352041
 30
0.0
  0
ENDBLK
  5
B9F
330
B9D
100
AcDbEntity
  8
0
100
AcDbBlockEnd
  0
BLOCK
  5
BB5
330
BAC
100
AcDbEntity
  8
0
100
AcDbBlockBegin
  2
HEADSTRAP_CATCH_SLOT
 70
     0
 10
0.0
 20
0.0
 30
0.0
  3
HEADSTRAP_CATCH_SLOT
  1

  0
LINE
  5
BAD
330
BAC
100
AcDbEntity
  8
CUTTING
 62
     1
100
AcDbLine
 10
2.002142333235611
 20
5.000620692380153
 30
0.0
 11
1.0
 21
5.000620692380153
 31
0.0
  0
LINE
  5
BAE
330
BAC
100
AcDbEntity
  8
CUTTING
 62
     1
100
AcDbLine
 10
0.0
 20
4.000620692380153
 30
0.0
 11
0.0
 21
-4.00062069238038
 31
0.0
  0
LINE
  5
BAF
330
BAC
100
AcDbEntity
  8
CUTTING
 62
     1
100
AcDbLine
 10
1.000000000000028
 20
-5.00062069238038
 30
0.0
 11
2.002142333235639
 21
-5.00062069238038
 31
0.0
  0
LINE
  5
BB0
330
BAC
100
AcDbEntity
  8
CUTTING
 62
     1
100
AcDbLine
 10
3.002142333235611
 20
-4.00062069238038
 30
0.0
 11
3.002142333235611
 21
4.000620692380153
 31
0.0
  0
ARC
  5
BB1
330
BAC
100
AcDbEntity
  8
CUTTING
 62
     1
100
AcDbCircle
 10
2.002142333235611
 20
4.000620692380153
 30
0.0
 40
1.0
100
AcDbArc
 50
0.0
 51
90.0
  0
ARC
  5
BB2
330
BAC
100
AcDbEntity
  8
CUTTING
 62
     1
100
AcDbCircle
 10
2.002142333235611
 20
-4.00062069238038
 30
0.0
 40
1.0
100
AcDbArc
 50
270.0000000000015
 51
0.0
  0
ARC
  5
BB3
330
BAC
100
AcDbEntity
  8
CUTTING
 62
     1
100
AcDbCircle
 10
1.0
 20
-4.00062069238038
 30
0.0
 40
1.0
100
AcDbArc
 50
180.0
 51
270.0000000000015
  0
ARC
  5
BB4
330
BAC
100
AcDbEntity
  8
CUTTING
 62
     1
100
AcDbCircle
 10
1.0
 20
4.000620692380153
 30
0.0
 40
1.0
100
AcDbArc
 50
90.0
 51
180.0
  0
ENDBLK
  5
BB6
330
BAC
100
AcDbEntity
  8
0
100
AcDbBlockEnd
  0
BLOCK
  5
BDE
330
BDD
100
AcDbEntity
  8
0
100
AcDbBlockBegin
  2
*D14
 70
     1
 10
0.0
 20
0.0
 30
0.0
  3
*D14
  1

  0
LINE
  5
BE0
330
BDD
100
AcDbEntity
  8
DIMENSIONS
 62
     0
100
AcDbLine
 10
383.101713312243
 20
415.3719079483348
 30
0.0
 11
383.101713312243
 21
420.3719079483348
 31
0.0
  0
LINE
  5
BE1
330
BDD
100
AcDbEntity
  8
DIMENSIONS
 62
     0
100
AcDbLine
 10
360.101713312243
 20
415.3719079483348
 30
0.0
 11
360.101713312243
 21
420.3719079483348
 31
0.0
  0
LINE
  5
BE2
330
BDD
100
AcDbEntity
  8
DIMENSIONS
 62
     0
100
AcDbLine
 10
386.701713312243
 20
416.7719079483347
 30
0.0
 11
390.3017133122431
 21
416.7719079483347
 31
0.0
  0
LINE
  5
BE3
330
BDD
100
AcDbEntity
  8
DIMENSIONS
 62
     0
100
AcDbLine
 10
356.501713312243
 20
416.7719079483347
 30
0.0
 11
352.901713312243
 21
416.7719079483347
 31
0.0
  0
SOLID
  5
BE4
330
BDD
100
AcDbEntity
  8
DIMENSIONS
 62
     0
100
AcDbTrace
 10
386.701713312243
 20
417.3719079483348
 30
0.0
 11
386.701713312243
 21
416.1719079483347
 31
0.0
 12
383.101713312243
 22
416.7719079483347
 32
0.0
 13
383.101713312243
 23
416.7719079483347
 33
0.0
  0
SOLID
  5
BE5
330
BDD
100
AcDbEntity
  8
DIMENSIONS
 62
     0
100
AcDbTrace
 10
356.501713312243
 20
416.1719079483347
 30
0.0
 11
356.501713312243
 21
417.3719079483348
 31
0.0
 12
360.101713312243
 22
416.7719079483347
 32
0.0
 13
360.101713312243
 23
416.7719079483347
 33
0.0
  0
MTEXT
  5
BE6
330
BDD
100
AcDbEntity
  8
DIMENSIONS
 62
     0
100
AcDbMText
 10
371.601713312243
 20
416.7719079483347
 30
0.0
 40
3.6
 41
0.0
 71
     5
 72
     1
  1
\A1;23.0000
  0
POINT
  5
BE7
330
BDD
100
AcDbEntity
  8
DEFPOINTS
 62
     0
100
AcDbPoint
 10
383.101713312243
 20
414.1219079483348
 30
0.0
  0
POINT
  5
BE8
330
BDD
100
AcDbEntity
  8
DEFPOINTS
 62
     0
100
AcDbPoint
 10
360.101713312243
 20
414.1219079483348
 30
0.0
  0
POINT
  5
BE9
330
BDD
100
AcDbEntity
  8
DEFPOINTS
 62
     0
100
AcDbPoint
 10
360.101713312243
 20
416.7719079483347
 30
0.0
  0
ENDBLK
  5
BDF
330
BDD
100
AcDbEntity
  8
0
100
AcDbBlockEnd
  0
BLOCK
  5
C0A
330
BF7
100
AcDbEntity
  8
0
100
AcDbBlockBegin
  2
BROW_BAND_TAB
 70
     0
 10
0.0
 20
0.0
 30
0.0
  3
BROW_BAND_TAB
  1

  0
LINE
  5
BF9
330
BF7
100
AcDbEntity
  8
CUTTING
 62
     1
100
AcDbLine
 10
383.101713312243
 20
412.6219079483348
 30
0.0
 11
385.601713312243
 21
412.6219079483348
 31
0.0
  0
CIRCLE
  5
BFB
330
BF7
100
AcDbEntity
  8
CUTTING
100
AcDbCircle
 10
386.101713312243
 20
412.6219079483348
 30
0.0
 40
0.5
  0
LINE
  5
BFC
330
BF7
100
AcDbEntity
  8
CUTTING
 62
     1
100
AcDbLine
 10
383.101713312243
 20
403.6208459386163
 30
0.0
 11
385.601713312243
 21
403.6208459386163
 31
0.0
  0
CIRCLE
  5
BFD
330
BF7
100
AcDbEntity
  8
CUTTING
100
AcDbCircle
 10
386.101713312243
 20
403.6208459386163
 30
0.0
 40
0.5
  0
LINE
  5
BFE
330
BF7
100
AcDbEntity
  8
CUTTING
100
AcDbLine
 10
381.1263755803052
 20
413.4590235977847
 30
0.0
 11
375.6250906425819
 21
411.5677434875897
 31
0.0
  0
LINE
  5
BFF
330
BF7
100
AcDbEntity
  8
CUTTING
100
AcDbLine
 10
373.6004283745199
 20
408.1213769434755
 30
0.0
 11
373.6004283745199
 21
408.7307175256609
 31
0.0
  0
LINE
  5
C00
330
BF7
100
AcDbEntity
  8
CUTTING
100
AcDbLine
 10
383.101713312243
 20
413.6219976358558
 30
0.0
 11
382.101713312243
 21
413.6219976358558
 31
0.0
  0
LINE
  5
C01
330
BF7
100
AcDbEntity
  8
CUTTING
100
AcDbLine
 10
383.101713312243
 20
412.6219079483348
 30
0.0
 11
383.101713312243
 21
413.6219976358558
 31
0.0
  0
ARC
  5
C02
330
BF7
100
AcDbEntity
  8
CUTTING
100
AcDbCircle
 10
382.101713312243
 20
410.6219976358558
 30
0.0
 40
3.000000000000016
100
AcDbArc
 50
90.0
 51
108.9723955886559
  0
ARC
  5
C03
330
BF7
100
AcDbEntity
  8
CUTTING
100
AcDbCircle
 10
376.6004283745199
 20
408.7307175256609
 30
0.0
 40
3.0
100
AcDbArc
 50
108.9723955886563
 51
180.0
  0
LINE
  5
C04
330
BF7
100
AcDbEntity
  8
CUTTING
100
AcDbLine
 10
381.1263755803052
 20
402.7837302891663
 30
0.0
 11
375.6250906425819
 21
404.6750103993613
 31
0.0
  0
LINE
  5
C05
330
BF7
100
AcDbEntity
  8
CUTTING
100
AcDbLine
 10
373.6004283745199
 20
408.1213769434755
 30
0.0
 11
373.6004283745199
 21
407.5120363612901
 31
0.0
  0
LINE
  5
C06
330
BF7
100
AcDbEntity
  8
CUTTING
100
AcDbLine
 10
383.101713312243
 20
402.6207562510952
 30
0.0
 11
382.101713312243
 21
402.6207562510952
 31
0.0
  0
LINE
  5
C07
330
BF7
100
AcDbEntity
  8
CUTTING
100
AcDbLine
 10
383.101713312243
 20
403.6208459386163
 30
0.0
 11
383.101713312243
 21
402.6207562510952
 31
0.0
  0
ARC
  5
C08
330
BF7
100
AcDbEntity
  8
CUTTING
100
AcDbCircle
 10
382.101713312243
 20
405.6207562510952
 30
0.0
 40
3.000000000000016
100
AcDbArc
 50
251.0276044113437
 51
270.0
  0
ARC
  5
C09
330
BF7
100
AcDbEntity
  8
CUTTING
100
AcDbCircle
 10
376.6004283745199
 20
407.5120363612901
 30
0.0
 40
3.0
100
AcDbArc
 50
180.0
 51
251.0276044113437
  0
ENDBLK
  5
C0B
330
BF7
100
AcDbEntity
  8
0
100
AcDbBlockEnd
  0
BLOCK
  5
C2B
330
C2A
100
AcDbEntity
  8
0
100
AcDbBlockBegin
  2
*D16
 70
     1
 10
0.0
 20
0.0
 30
0.0
  3
*D16
  1

  0
LINE
  5
C2D
330
C2A
100
AcDbEntity
  8
DIMENSIONS
 62
     0
100
AcDbLine
 10
47.10158744081201
 20
213.4422104020977
 30
0.0
 11
47.10158744081201
 21
91.69221040209766
 31
0.0
  0
LINE
  5
C2E
330
C2A
100
AcDbEntity
  8
DIMENSIONS
 62
     0
100
AcDbLine
 10
496.8162872646607
 20
213.7275104385488
 30
0.0
 11
496.8162872646607
 21
91.69221040209766
 31
0.0
  0
LINE
  5
C2F
330
C2A
100
AcDbEntity
  8
DIMENSIONS
 62
     0
100
AcDbLine
 10
50.70158744081201
 20
95.29221040209765
 30
0.0
 11
258.1589373527363
 21
95.29221040209765
 31
0.0
  0
LINE
  5
C30
330
C2A
100
AcDbEntity
  8
DIMENSIONS
 62
     0
100
AcDbLine
 10
493.2162872646607
 20
95.29221040209765
 30
0.0
 11
285.7589373527364
 21
95.29221040209765
 31
0.0
  0
SOLID
  5
C31
330
C2A
100
AcDbEntity
  8
DIMENSIONS
 62
     0
100
AcDbTrace
 10
50.70158744081201
 20
95.89221040209765
 30
0.0
 11
50.70158744081201
 21
94.69221040209766
 31
0.0
 12
47.10158744081201
 22
95.29221040209765
 32
0.0
 13
47.10158744081201
 23
95.29221040209765
 33
0.0
  0
SOLID
  5
C32
330
C2A
100
AcDbEntity
  8
DIMENSIONS
 62
     0
100
AcDbTrace
 10
493.2162872646607
 20
94.69221040209766
 30
0.0
 11
493.2162872646607
 21
95.89221040209765
 31
0.0
 12
496.8162872646607
 22
95.29221040209765
 32
0.0
 13
496.8162872646607
 23
95.29221040209765
 33
0.0
  0
MTEXT
  5
C33
330
C2A
100
AcDbEntity
  8
DIMENSIONS
 62
     0
100
AcDbMText
 10
271.9589373527364
 20
95.29221040209765
 30
0.0
 40
3.6
 41
0.0
 71
     5
 72
     1
  1
\A1;449.7147
  0
POINT
  5
C34
330
C2A
100
AcDbEntity
  8
DEFPOINTS
 62
     0
100
AcDbPoint
 10
47.10158744081202
 20
276.9190816686508
 30
0.0
  0
POINT
  5
C35
330
C2A
100
AcDbEntity
  8
DEFPOINTS
 62
     0
100
AcDbPoint
 10
496.8162872646607
 20
277.0617316868764
 30
0.0
  0
POINT
  5
C36
330
C2A
100
AcDbEntity
  8
DEFPOINTS
 62
     0
100
AcDbPoint
 10
496.8162872646607
 20
95.29221040209765
 30
0.0
  0
ENDBLK
  5
C2C
330
C2A
100
AcDbEntity
  8
0
100
AcDbBlockEnd
  0
BLOCK
  5
E06
330
DCD
100
AcDbEntity
  8
0
100
AcDbBlockBegin
  2
HEADSTRAP
 70
     0
 10
0.0
 20
0.0
 30
0.0
  3
HEADSTRAP
  1

  0
LINE
  5
DCE
330
DCD
100
AcDbEntity
  8
CUTTING
 62
     1
100
AcDbLine
 10
132.0007534118456
 20
-10.00124138476184
 30
0.0
 11
130.9986110786119
 21
-10.00124138476184
 31
0.0
  0
LINE
  5
DCF
330
DCD
100
AcDbEntity
  8
CUTTING
 62
     1
100
AcDbLine
 10
129.9986110786119
 20
-11.00124138476184
 30
0.0
 11
129.9986110786119
 21
-18.99895154665001
 31
0.0
  0
LINE
  5
DD0
330
DCD
100
AcDbEntity
  8
CUTTING
 62
     1
100
AcDbLine
 10
130.9986110786119
 20
-19.99895154665001
 30
0.0
 11
132.0007534118456
 21
-19.99895154665001
 31
0.0
  0
LINE
  5
DD1
330
DCD
100
AcDbEntity
  8
CUTTING
 62
     1
100
AcDbLine
 10
133.0007534118456
 20
-18.99895154665001
 30
0.0
 11
133.0007534118456
 21
-11.00124138476184
 31
0.0
  0
ARC
  5
DD2
330
DCD
100
AcDbEntity
  8
CUTTING
 62
     1
100
AcDbCircle
 10
132.0007534118456
 20
-11.00124138476184
 30
0.0
 40
1.0
100
AcDbArc
 50
0.0
 51
90.0
  0
ARC
  5
DD3
330
DCD
100
AcDbEntity
  8
CUTTING
 62
     1
100
AcDbCircle
 10
132.0007534118456
 20
-18.99895154665001
 30
0.0
 40
1.0
100
AcDbArc
 50
270.0
 51
0.0
  0
ARC
  5
DD4
330
DCD
100
AcDbEntity
  8
CUTTING
 62
     1
100
AcDbCircle
 10
130.9986110786119
 20
-18.99895154665001
 30
0.0
 40
1.0
100
AcDbArc
 50
180.0
 51
270.0
  0
ARC
  5
DD5
330
DCD
100
AcDbEntity
  8
CUTTING
 62
     1
100
AcDbCircle
 10
130.9986110786119
 20
-11.00124138476184
 30
0.0
 40
1.0
100
AcDbArc
 50
90.0
 51
180.0
  0
LINE
  5
DD6
330
DCD
100
AcDbEntity
  8
CUTTING
100
AcDbLine
 10
234.5086798666571
 20
-30.00023599510411
 30
0.0
 11
-242.899565459863
 21
-29.99917874883835
 31
0.0
  0
LINE
  5
DD7
330
DCD
100
AcDbEntity
  8
CUTTING
100
AcDbLine
 10
-74.40690502218649
 20
0.0
 30
0.0
 11
-242.8999999301498
 21
0.0
 31
0.0
  0
LINE
  5
DD8
330
DCD
100
AcDbEntity
  8
CUTTING
 62
     1
100
AcDbLine
 10
-155.0018472917302
 20
-9.997710161889415
 30
0.0
 11
-153.9997049584947
 21
-9.997710161889415
 31
0.0
  0
LINE
  5
DD9
330
DCD
100
AcDbEntity
  8
CUTTING
 62
     1
100
AcDbLine
 10
-152.9997049584947
 20
-10.99771016188942
 30
0.0
 11
-152.9997049584947
 21
-18.99895154665001
 31
0.0
  0
LINE
  5
DDA
330
DCD
100
AcDbEntity
  8
CUTTING
 62
     1
100
AcDbLine
 10
-153.9997049584947
 20
-19.99895154665001
 30
0.0
 11
-155.0018472917302
 21
-19.99895154665001
 31
0.0
  0
LINE
  5
DDB
330
DCD
100
AcDbEntity
  8
CUTTING
 62
     1
100
AcDbLine
 10
-156.0018472917302
 20
-18.99895154665001
 30
0.0
 11
-156.0018472917302
 21
-10.99771016188942
 31
0.0
  0
LINE
  5
DDC
330
DCD
100
AcDbEntity
  8
CUTTING
 62
     1
100
AcDbLine
 10
-132.0007534118456
 20
-10.00124138476184
 30
0.0
 11
-130.9986110786117
 21
-10.00124138476184
 31
0.0
  0
LINE
  5
DDD
330
DCD
100
AcDbEntity
  8
CUTTING
 62
     1
100
AcDbLine
 10
-129.9986110786117
 20
-11.00124138476184
 30
0.0
 11
-129.9986110786117
 21
-18.99895154665001
 31
0.0
  0
LINE
  5
DDE
330
DCD
100
AcDbEntity
  8
CUTTING
 62
     1
100
AcDbLine
 10
-130.9986110786117
 20
-19.99895154665001
 30
0.0
 11
-132.0007534118456
 21
-19.99895154665001
 31
0.0
  0
LINE
  5
DDF
330
DCD
100
AcDbEntity
  8
CUTTING
 62
     1
100
AcDbLine
 10
-133.0007534118456
 20
-18.99895154665001
 30
0.0
 11
-133.0007534118456
 21
-11.00124138476184
 31
0.0
  0
ARC
  5
DE0
330
DCD
100
AcDbEntity
  8
CUTTING
 62
     1
100
AcDbCircle
 10
-155.0018472917302
 20
-10.99771016188942
 30
0.0
 40
1.0
100
AcDbArc
 50
90.0
 51
180.0
  0
ARC
  5
DE1
330
DCD
100
AcDbEntity
  8
CUTTING
 62
     1
100
AcDbCircle
 10
-155.0018472917302
 20
-18.99895154665001
 30
0.0
 40
1.0
100
AcDbArc
 50
180.0
 51
270.0
  0
ARC
  5
DE2
330
DCD
100
AcDbEntity
  8
CUTTING
 62
     1
100
AcDbCircle
 10
-153.9997049584947
 20
-18.99895154665001
 30
0.0
 40
1.0
100
AcDbArc
 50
270.0
 51
0.0
  0
ARC
  5
DE3
330
DCD
100
AcDbEntity
  8
CUTTING
 62
     1
100
AcDbCircle
 10
-153.9997049584947
 20
-10.99771016188942
 30
0.0
 40
1.0
100
AcDbArc
 50
0.0
 51
90.0
  0
ARC
  5
DE4
330
DCD
100
AcDbEntity
  8
CUTTING
 62
     1
100
AcDbCircle
 10
-132.0007534118456
 20
-11.00124138476184
 30
0.0
 40
1.0
100
AcDbArc
 50
90.0
 51
180.0
  0
ARC
  5
DE5
330
DCD
100
AcDbEntity
  8
CUTTING
 62
     1
100
AcDbCircle
 10
-132.0007534118456
 20
-18.99895154665001
 30
0.0
 40
1.0
100
AcDbArc
 50
180.0
 51
270.0
  0
ARC
  5
DE6
330
DCD
100
AcDbEntity
  8
CUTTING
 62
     1
100
AcDbCircle
 10
-130.9986110786117
 20
-18.99895154665001
 30
0.0
 40
1.0
100
AcDbArc
 50
270.0
 51
0.0
  0
ARC
  5
DE7
330
DCD
100
AcDbEntity
  8
CUTTING
 62
     1
100
AcDbCircle
 10
-130.9986110786117
 20
-11.00124138476184
 30
0.0
 40
1.0
100
AcDbArc
 50
0.0
 51
90.0
  0
LINE
  5
DE8
330
DCD
100
AcDbEntity
  8
CUTTING
100
AcDbLine
 10
497.5086798666571
 20
-15.00011799755202
 30
0.0
 11
497.5086798666571
 21
-15.00011799755202
 31
0.0
  0
LINE
  5
DE9
330
DCD
100
AcDbEntity
  8
CUTTING
100
AcDbLine
 10
239.5086798666571
 20
-5.000117997552138
 30
0.0
 11
487.5086798666571
 21
-5.000117997552024
 31
0.0
  0
LINE
  5
DEA
330
DCD
100
AcDbEntity
  8
CUTTING
100
AcDbLine
 10
239.5086798666571
 20
-25.00011799755214
 30
0.0
 11
487.5086798666571
 21
-25.00011799755202
 31
0.0
  0
ARC
  5
DEB
330
DCD
100
AcDbEntity
  8
CUTTING
100
AcDbCircle
 10
487.5086798666571
 20
-15.00011799755202
 30
0.0
 40
9.999999999999998
100
AcDbArc
 50
0.0
 51
90.0
  0
ARC
  5
DEC
330
DCD
100
AcDbEntity
  8
CUTTING
100
AcDbCircle
 10
487.5086798666571
 20
-15.00011799755202
 30
0.0
 40
10.0
100
AcDbArc
 50
270.0
 51
0.0
  0
LINE
  5
DED
330
DCD
100
AcDbEntity
  8
CUTTING
100
AcDbLine
 10
237.0086798666571
 20
-27.50023599510411
 30
0.0
 11
237.0086798666571
 21
-27.50011799755214
 31
0.0
  0
LINE
  5
DEE
330
DCD
100
AcDbEntity
  8
CUTTING
100
AcDbLine
 10
237.0086798666571
 20
-2.500117997552138
 30
0.0
 11
237.0086798666571
 21
-2.500000000000057
 31
0.0
  0
ARC
  5
DEF
330
DCD
100
AcDbEntity
  8
CUTTING
100
AcDbCircle
 10
234.5086798666571
 20
-2.500000000000057
 30
0.0
 40
2.5
100
AcDbArc
 50
0.0
 51
90.0
  0
ARC
  5
DF0
330
DCD
100
AcDbEntity
  8
CUTTING
100
AcDbCircle
 10
239.5086798666571
 20
-2.500117997552138
 30
0.0
 40
2.499999999999999
100
AcDbArc
 50
180.0
 51
270.0
  0
ARC
  5
DF1
330
DCD
100
AcDbEntity
  8
CUTTING
100
AcDbCircle
 10
239.5086798666571
 20
-27.50011799755214
 30
0.0
 40
2.5
100
AcDbArc
 50
90.0
 51
180.0
  0
ARC
  5
DF2
330
DCD
100
AcDbEntity
  8
CUTTING
100
AcDbCircle
 10
234.5086798666571
 20
-27.50023599510411
 30
0.0
 40
2.5
100
AcDbArc
 50
270.0
 51
0.0
  0
INSERT
  5
DF3
330
DCD
100
AcDbEntity
  8
DIMENSIONS
100
AcDbBlockReference
  2
FRAME_SIZE_BUCKLE
 10
-272.1015873709619
 20
-386.6971893945786
 30
0.0
  0
INSERT
  5
DF6
330
DCD
100
AcDbEntity
  8
DIMENSIONS
100
AcDbBlockReference
  2
FRAME_SIZE_TAB
 10
-207.5986277773482
 20
-386.6971893945787
 30
0.0
  0
LINE
  5
F87
330
DCD
100
AcDbEntity
  8
CUTTING
 62
     1
100
AcDbLine
 10
152.9986110786119
 20
-11.00124138476178
 30
0.0
 11
152.9986110786119
 21
-18.99895154664995
 31
0.0
  0
LINE
  5
F88
330
DCD
100
AcDbEntity
  8
CUTTING
 62
     1
100
AcDbLine
 10
156.0007534118456
 20
-18.99895154665001
 30
0.0
 11
156.0007534118456
 21
-11.00124138476184
 31
0.0
  0
INSERT
  5
F89
330
DCD
100
AcDbEntity
  8
DIMENSIONS
100
AcDbBlockReference
  2
FRAME_SIZE_TAB
 10
-402.5986277773482
 20
-386.6971893945787
 30
0.0
  0
LINE
  5
F8A
330
DCD
100
AcDbEntity
  8
CUTTING
 62
     1
100
AcDbLine
 10
152.9986110786119
 20
-11.00124138476184
 30
0.0
 11
152.9986110786119
 21
-18.99895154665001
 31
0.0
  0
ARC
  5
F8B
330
DCD
100
AcDbEntity
  8
CUTTING
 62
     1
100
AcDbCircle
 10
155.0007534118456
 20
-18.99895154665001
 30
0.0
 40
1.0
100
AcDbArc
 50
270.0
 51
0.0
  0
INSERT
  5
F8C
330
DCD
100
AcDbEntity
  8
DIMENSIONS
100
AcDbBlockReference
  2
FRAME_SIZE_TAB
 10
-312.5986277773482
 20
-386.6971893945787
 30
0.0
  0
INSERT
  5
F8D
330
DCD
100
AcDbEntity
  8
DIMENSIONS
100
AcDbBlockReference
  2
FRAME_SIZE_TAB
 10
-432.5986277773482
 20
-386.6971893945787
 30
0.0
  0
INSERT
  5
F8E
330
DCD
100
AcDbEntity
  8
DIMENSIONS
100
AcDbBlockReference
  2
FRAME_SIZE_TAB
 10
-357.5986277773482
 20
-386.6971893945787
 30
0.0
  0
INSERT
  5
F8F
330
DCD
100
AcDbEntity
  8
DIMENSIONS
100
AcDbBlockReference
  2
FRAME_SIZE_TAB
 10
-417.5986277773482
 20
-386.6971893945787
 30
0.0
  0
INSERT
  5
F90
330
DCD
100
AcDbEntity
  8
DIMENSIONS
100
AcDbBlockReference
  2
FRAME_SIZE_TAB
 10
-297.5986277773482
 20
-386.6971893945787
 30
0.0
  0
INSERT
  5
F91
330
DCD
100
AcDbEntity
  8
DIMENSIONS
100
AcDbBlockReference
  2
FRAME_SIZE_TAB
 10
-372.5986277773482
 20
-386.6971893945787
 30
0.0
  0
INSERT
  5
F92
330
DCD
100
AcDbEntity
  8
DIMENSIONS
100
AcDbBlockReference
  2
FRAME_SIZE_TAB
 10
-387.5986277773482
 20
-386.6971893945787
 30
0.0
  0
ARC
  5
F93
330
DCD
100
AcDbEntity
  8
CUTTING
 62
     1
100
AcDbCircle
 10
153.9986110786119
 20
-11.00124138476184
 30
0.0
 40
1.0
100
AcDbArc
 50
90.0
 51
180.0
  0
LINE
  5
F94
330
DCD
100
AcDbEntity
  8
CUTTING
 62
     1
100
AcDbLine
 10
153.9986110786119
 20
-19.99895154664995
 30
0.0
 11
155.0007534118456
 21
-19.99895154664995
 31
0.0
  0
LINE
  5
F95
330
DCD
100
AcDbEntity
  8
CUTTING
 62
     1
100
AcDbLine
 10
153.9986110786119
 20
-19.99895154665001
 30
0.0
 11
155.0007534118456
 21
-19.99895154665001
 31
0.0
  0
LINE
  5
F96
330
DCD
100
AcDbEntity
  8
CUTTING
 62
     1
100
AcDbLine
 10
156.0007534118456
 20
-18.99895154664995
 30
0.0
 11
156.0007534118456
 21
-11.00124138476178
 31
0.0
  0
ARC
  5
F97
330
DCD
100
AcDbEntity
  8
CUTTING
 62
     1
100
AcDbCircle
 10
153.9986110786119
 20
-11.00124138476178
 30
0.0
 40
1.0
100
AcDbArc
 50
90.0
 51
180.0
  0
ARC
  5
F98
330
DCD
100
AcDbEntity
  8
CUTTING
 62
     1
100
AcDbCircle
 10
153.9986110786119
 20
-18.99895154664995
 30
0.0
 40
1.0
100
AcDbArc
 50
180.0
 51
270.0
  0
LINE
  5
F99
330
DCD
100
AcDbEntity
  8
CUTTING
 62
     1
100
AcDbLine
 10
155.0007534118456
 20
-10.00124138476178
 30
0.0
 11
153.9986110786119
 21
-10.00124138476178
 31
0.0
  0
ARC
  5
F9A
330
DCD
100
AcDbEntity
  8
CUTTING
 62
     1
100
AcDbCircle
 10
155.0007534118456
 20
-11.00124138476178
 30
0.0
 40
1.0
100
AcDbArc
 50
0.0
 51
90.0
  0
LINE
  5
F9B
330
DCD
100
AcDbEntity
  8
CUTTING
 62
     1
100
AcDbLine
 10
155.0007534118456
 20
-10.00124138476184
 30
0.0
 11
153.9986110786119
 21
-10.00124138476184
 31
0.0
  0
ARC
  5
F9C
330
DCD
100
AcDbEntity
  8
CUTTING
 62
     1
100
AcDbCircle
 10
155.0007534118456
 20
-18.99895154664995
 30
0.0
 40
1.0
100
AcDbArc
 50
270.0
 51
0.0
  0
ARC
  5
F9D
330
DCD
100
AcDbEntity
  8
CUTTING
 62
     1
100
AcDbCircle
 10
153.9986110786119
 20
-18.99895154665001
 30
0.0
 40
1.0
100
AcDbArc
 50
180.0
 51
270.0
  0
ARC
  5
F9E
330
DCD
100
AcDbEntity
  8
CUTTING
 62
     1
100
AcDbCircle
 10
155.0007534118456
 20
-11.00124138476184
 30
0.0
 40
1.0
100
AcDbArc
 50
0.0
 51
90.0
  0
INSERT
  5
F9F
330
DCD
100
AcDbEntity
  8
DIMENSIONS
100
AcDbBlockReference
  2
FRAME_SIZE_TAB
 10
-252.5986277773482
 20
-386.6971893945787
 30
0.0
  0
INSERT
  5
FA0
330
DCD
100
AcDbEntity
  8
DIMENSIONS
100
AcDbBlockReference
  2
FRAME_SIZE_TAB
 10
-267.5986277773482
 20
-386.6971893945787
 30
0.0
  0
INSERT
  5
FA1
330
DCD
100
AcDbEntity
  8
DIMENSIONS
100
AcDbBlockReference
  2
FRAME_SIZE_TAB
 10
-282.5986277773482
 20
-386.6971893945787
 30
0.0
  0
INSERT
  5
FA2
330
DCD
100
AcDbEntity
  8
DIMENSIONS
100
AcDbBlockReference
  2
FRAME_SIZE_TAB
 10
-342.5986277773482
 20
-386.6971893945787
 30
0.0
  0
INSERT
  5
FA3
330
DCD
100
AcDbEntity
  8
DIMENSIONS
100
AcDbBlockReference
  2
FRAME_SIZE_TAB
 10
-327.5986277773482
 20
-386.6971893945787
 30
0.0
  0
INSERT
  5
FA4
330
DCD
100
AcDbEntity
  8
DIMENSIONS
100
AcDbBlockReference
  2
FRAME_SIZE_TAB
 10
-222.5986277773482
 20
-386.6971893945787
 30
0.0
  0
INSERT
  5
FA5
330
DCD
100
AcDbEntity
  8
DIMENSIONS
100
AcDbBlockReference
  2
FRAME_SIZE_TAB
 10
-237.5986277773482
 20
-386.6971893945787
 30
0.0
  0
ARC
  5
1440
330
DCD
100
AcDbEntity
  8
CUTTING
100
AcDbCircle
 10
-70.90690502218649
 20
2.499999999999886
 30
0.0
 40
2.5
100
AcDbArc
 50
90.0
 51
180.0
  0
LINE
  5
1441
330
DCD
100
AcDbEntity
  8
CUTTING
100
AcDbLine
 10
-73.40690502218649
 20
2.499999999999886
 30
0.0
 11
-73.40690502218649
 21
1.0
 31
0.0
  0
ARC
  5
1442
330
DCD
100
AcDbEntity
  8
CUTTING
100
AcDbCircle
 10
-74.40690502218649
 20
1.0
 30
0.0
 40
1.0
100
AcDbArc
 50
270.0
 51
0.0
  0
ARC
  5
1443
330
DCD
100
AcDbEntity
  8
CUTTING
100
AcDbCircle
 10
78.09309497781328
 20
2.499999999999886
 30
0.0
 40
2.5
100
AcDbArc
 50
0.0
 51
90.0
  0
LINE
  5
1444
330
DCD
100
AcDbEntity
  8
CUTTING
100
AcDbLine
 10
234.5086798666571
 20
-0.0000000000001137
 30
0.0
 11
81.59309497781328
 21
0.0
 31
0.0
  0
ARC
  5
1445
330
DCD
100
AcDbEntity
  8
CUTTING
100
AcDbCircle
 10
81.59309497781328
 20
1.0
 30
0.0
 40
1.0
100
AcDbArc
 50
180.0
 51
270.0
  0
LINE
  5
1446
330
DCD
100
AcDbEntity
  8
CUTTING
100
AcDbLine
 10
78.09309497781328
 20
4.999999999999886
 30
0.0
 11
-70.90690502218649
 21
4.999999999999886
 31
0.0
  0
LINE
  5
1447
330
DCD
100
AcDbEntity
  8
CUTTING
100
AcDbLine
 10
80.59309497781328
 20
2.499999999999886
 30
0.0
 11
80.59309497781328
 21
1.0
 31
0.0
  0
ENDBLK
  5
E07
330
DCD
100
AcDbEntity
  8
0
100
AcDbBlockEnd
  0
BLOCK
  5
FB5
330
FB4
100
AcDbEntity
  8
0
100
AcDbBlockBegin
  2
*D18
 70
     1
 10
0.0
 20
0.0
 30
0.0
  3
*D18
  1

  0
LINE
  5
FB7
330
FB4
100
AcDbEntity
  8
CUTTING
 62
     0
100
AcDbLine
 10
1200.947450390741
 20
341.441627674519
 30
0.0
 11
1200.947450390741
 21
372.941627674519
 31
0.0
  0
LINE
  5
FB8
330
FB4
100
AcDbEntity
  8
CUTTING
 62
     0
100
AcDbLine
 10
1425.662150284439
 20
338.4416276745191
 30
0.0
 11
1425.662150284439
 21
372.941627674519
 31
0.0
  0
LINE
  5
FB9
330
FB4
100
AcDbEntity
  8
CUTTING
 62
     0
100
AcDbLine
 10
1204.547450390741
 20
369.341627674519
 30
0.0
 11
1299.50480033759
 21
369.341627674519
 31
0.0
  0
LINE
  5
FBA
330
FB4
100
AcDbEntity
  8
CUTTING
 62
     0
100
AcDbLine
 10
1422.062150284439
 20
369.341627674519
 30
0.0
 11
1327.10480033759
 21
369.341627674519
 31
0.0
  0
SOLID
  5
FBB
330
FB4
100
AcDbEntity
  8
CUTTING
 62
     0
100
AcDbTrace
 10
1204.547450390741
 20
369.941627674519
 30
0.0
 11
1204.547450390741
 21
368.741627674519
 31
0.0
 12
1200.947450390741
 22
369.341627674519
 32
0.0
 13
1200.947450390741
 23
369.341627674519
 33
0.0
  0
SOLID
  5
FBC
330
FB4
100
AcDbEntity
  8
CUTTING
 62
     0
100
AcDbTrace
 10
1422.062150284439
 20
368.741627674519
 30
0.0
 11
1422.062150284439
 21
369.941627674519
 31
0.0
 12
1425.662150284439
 22
369.341627674519
 32
0.0
 13
1425.662150284439
 23
369.341627674519
 33
0.0
  0
MTEXT
  5
FBD
330
FB4
100
AcDbEntity
  8
CUTTING
 62
     0
100
AcDbMText
 10
1313.30480033759
 20
369.341627674519
 30
0.0
 40
3.6
 41
0.0
 71
     5
 72
     1
  1
\A1;224.7147
  0
POINT
  5
FBE
330
FB4
100
AcDbEntity
  8
DEFPOINTS
 62
     0
100
AcDbPoint
 10
1200.947450390741
 20
340.191627674519
 30
0.0
  0
POINT
  5
FBF
330
FB4
100
AcDbEntity
  8
DEFPOINTS
 62
     0
100
AcDbPoint
 10
1425.662150284439
 20
337.1916276745191
 30
0.0
  0
POINT
  5
FC0
330
FB4
100
AcDbEntity
  8
DEFPOINTS
 62
     0
100
AcDbPoint
 10
1425.662150284439
 20
369.341627674519
 30
0.0
  0
ENDBLK
  5
FB6
330
FB4
100
AcDbEntity
  8
0
100
AcDbBlockEnd
  0
BLOCK
  5
FC6
330
FC5
100
AcDbEntity
  8
0
100
AcDbBlockBegin
  2
*D19
 70
     1
 10
0.0
 20
0.0
 30
0.0
  3
*D19
  1

  0
LINE
  5
FC8
330
FC5
100
AcDbEntity
  8
CUTTING
 62
     0
100
AcDbLine
 10
1200.947450390741
 20
341.441627674519
 30
0.0
 11
1200.947450390741
 21
375.691627674519
 31
0.0
  0
LINE
  5
FC9
330
FC5
100
AcDbEntity
  8
CUTTING
 62
     0
100
AcDbLine
 10
975.9474504605907
 20
338.441627674519
 30
0.0
 11
975.9474504605907
 21
375.691627674519
 31
0.0
  0
LINE
  5
FCA
330
FC5
100
AcDbEntity
  8
CUTTING
 62
     0
100
AcDbLine
 10
1197.347450390741
 20
372.091627674519
 30
0.0
 11
1101.647450425666
 21
372.091627674519
 31
0.0
  0
LINE
  5
FCB
330
FC5
100
AcDbEntity
  8
CUTTING
 62
     0
100
AcDbLine
 10
979.5474504605908
 20
372.091627674519
 30
0.0
 11
1075.247450425666
 21
372.091627674519
 31
0.0
  0
SOLID
  5
FCC
330
FC5
100
AcDbEntity
  8
CUTTING
 62
     0
100
AcDbTrace
 10
1197.347450390741
 20
371.491627674519
 30
0.0
 11
1197.347450390741
 21
372.691627674519
 31
0.0
 12
1200.947450390741
 22
372.091627674519
 32
0.0
 13
1200.947450390741
 23
372.091627674519
 33
0.0
  0
SOLID
  5
FCD
330
FC5
100
AcDbEntity
  8
CUTTING
 62
     0
100
AcDbTrace
 10
979.5474504605908
 20
372.691627674519
 30
0.0
 11
979.5474504605908
 21
371.491627674519
 31
0.0
 12
975.9474504605907
 22
372.091627674519
 32
0.0
 13
975.9474504605907
 23
372.091627674519
 33
0.0
  0
MTEXT
  5
FCE
330
FC5
100
AcDbEntity
  8
CUTTING
 62
     0
100
AcDbMText
 10
1088.447450425666
 20
372.091627674519
 30
0.0
 40
3.6
 41
0.0
 71
     5
 72
     1
  1
\A1;225.0000
  0
POINT
  5
FCF
330
FC5
100
AcDbEntity
  8
DEFPOINTS
 62
     0
100
AcDbPoint
 10
1200.947450390741
 20
340.191627674519
 30
0.0
  0
POINT
  5
FD0
330
FC5
100
AcDbEntity
  8
DEFPOINTS
 62
     0
100
AcDbPoint
 10
975.9474504605907
 20
337.191627674519
 30
0.0
  0
POINT
  5
FD1
330
FC5
100
AcDbEntity
  8
DEFPOINTS
 62
     0
100
AcDbPoint
 10
975.9474504605907
 20
372.091627674519
 30
0.0
  0
ENDBLK
  5
FC7
330
FC5
100
AcDbEntity
  8
0
100
AcDbBlockEnd
  0
BLOCK
  5
104B
330
FED
100
AcDbEntity
  8
0
100
AcDbBlockBegin
  2
FACEPLATE_WITH_HOOD
 70
     0
 10
0.0
 20
0.0
 30
0.0
  3
FACEPLATE_WITH_HOOD
  1

  0
LINE
  5
FEE
330
FED
100
AcDbEntity
  8
CUTTING
100
AcDbLine
 10
97.28800527204316
 20
-217.0498406910904
 30
0.0
 11
215.5974542224133
 21
-144.5035832241969
 31
0.0
  0
LINE
  5
FEF
330
FED
100
AcDbEntity
  8
CUTTING
100
AcDbLine
 10
224.8573499119243
 20
-2.999999999999943
 30
0.0
 11
224.8573499119243
 21
-127.1684424966552
 31
0.0
  0
ARC
  5
FF0
330
FED
100
AcDbEntity
  8
CUTTING
100
AcDbCircle
 10
205.1426499483753
 20
-127.4537425331064
 30
0.0
 40
19.99999999999999
100
AcDbArc
 50
301.516239757755
 51
0.0
  0
ARC
  5
FF1
330
FED
100
AcDbEntity
  8
CUTTING
100
AcDbCircle
 10
86.83320099800562
 20
-199.9999999999999
 30
0.0
 40
20.00000000000002
100
AcDbArc
 50
270.0
 51
301.516239757754
  0
LINE
  5
FF2
330
FED
100
AcDbEntity
  8
CUTTING
 62
     1
100
AcDbLine
 10
155.4297973464068
 20
-9.997710161889302
 30
0.0
 11
154.4276550131713
 21
-9.997710161889302
 31
0.0
  0
LINE
  5
FF3
330
FED
100
AcDbEntity
  8
CUTTING
 62
     1
100
AcDbLine
 10
153.4276550131713
 20
-10.9977101618893
 30
0.0
 11
153.4276550131713
 21
-18.99895154665001
 31
0.0
  0
LINE
  5
FF4
330
FED
100
AcDbEntity
  8
CUTTING
 62
     1
100
AcDbLine
 10
154.4276550131713
 20
-19.99895154665001
 30
0.0
 11
155.4297973464068
 21
-19.99895154665001
 31
0.0
  0
LINE
  5
FF5
330
FED
100
AcDbEntity
  8
CUTTING
 62
     1
100
AcDbLine
 10
156.4297973464068
 20
-18.99895154665001
 30
0.0
 11
156.4297973464068
 21
-10.9977101618893
 31
0.0
  0
LINE
  5
FF6
330
FED
100
AcDbEntity
  8
CUTTING
 62
     1
100
AcDbLine
 10
132.4287034665222
 20
-10.00124138476184
 30
0.0
 11
131.4265611332885
 21
-10.00124138476184
 31
0.0
  0
LINE
  5
FF7
330
FED
100
AcDbEntity
  8
CUTTING
 62
     1
100
AcDbLine
 10
130.4265611332885
 20
-11.00124138476184
 30
0.0
 11
130.4265611332885
 21
-18.99895154665001
 31
0.0
  0
LINE
  5
FF8
330
FED
100
AcDbEntity
  8
CUTTING
 62
     1
100
AcDbLine
 10
131.4265611332885
 20
-19.99895154665001
 30
0.0
 11
132.4287034665222
 21
-19.99895154665001
 31
0.0
  0
LINE
  5
FF9
330
FED
100
AcDbEntity
  8
CUTTING
 62
     1
100
AcDbLine
 10
133.4287034665222
 20
-18.99895154665001
 30
0.0
 11
133.4287034665222
 21
-11.00124138476184
 31
0.0
  0
ARC
  5
FFA
330
FED
100
AcDbEntity
  8
CUTTING
 62
     1
100
AcDbCircle
 10
155.4297973464068
 20
-10.9977101618893
 30
0.0
 40
1.0
100
AcDbArc
 50
0.0
 51
90.0
  0
ARC
  5
FFB
330
FED
100
AcDbEntity
  8
CUTTING
 62
     1
100
AcDbCircle
 10
155.4297973464068
 20
-18.99895154665001
 30
0.0
 40
1.0
100
AcDbArc
 50
270.0
 51
0.0
  0
ARC
  5
FFC
330
FED
100
AcDbEntity
  8
CUTTING
 62
     1
100
AcDbCircle
 10
154.4276550131713
 20
-18.99895154665001
 30
0.0
 40
1.0
100
AcDbArc
 50
180.0
 51
270.0
  0
ARC
  5
FFD
330
FED
100
AcDbEntity
  8
CUTTING
 62
     1
100
AcDbCircle
 10
154.4276550131713
 20
-10.9977101618893
 30
0.0
 40
1.0
100
AcDbArc
 50
90.0
 51
180.0
  0
ARC
  5
FFE
330
FED
100
AcDbEntity
  8
CUTTING
 62
     1
100
AcDbCircle
 10
132.4287034665222
 20
-11.00124138476184
 30
0.0
 40
1.0
100
AcDbArc
 50
0.0
 51
90.0
  0
ARC
  5
FFF
330
FED
100
AcDbEntity
  8
CUTTING
 62
     1
100
AcDbCircle
 10
132.4287034665222
 20
-18.99895154665001
 30
0.0
 40
1.0
100
AcDbArc
 50
270.0
 51
0.0
  0
ARC
  5
1000
330
FED
100
AcDbEntity
  8
CUTTING
 62
     1
100
AcDbCircle
 10
131.4265611332885
 20
-18.99895154665001
 30
0.0
 40
1.0
100
AcDbArc
 50
180.0
 51
270.0
  0
ARC
  5
1001
330
FED
100
AcDbEntity
  8
CUTTING
 62
     1
100
AcDbCircle
 10
131.4265611332885
 20
-11.00124138476184
 30
0.0
 40
1.0
100
AcDbArc
 50
90.0
 51
180.0
  0
LINE
  5
1002
330
FED
100
AcDbEntity
  8
CUTTING
100
AcDbLine
 10
0.142650018225595
 20
-219.9999999999999
 30
0.0
 11
86.83320099800562
 21
-219.9999999999999
 31
0.0
  0
LINE
  5
1003
330
FED
100
AcDbEntity
  8
CUTTING
100
AcDbLine
 10
-97.00270523559197
 20
-217.0498406910904
 30
0.0
 11
-215.312154185962
 21
-144.5035832241969
 31
0.0
  0
LINE
  5
1004
330
FED
100
AcDbEntity
  8
CUTTING
100
AcDbLine
 10
-224.8573499119243
 20
-3.000000000000057
 30
0.0
 11
-224.8573499119243
 21
-127.4537425331064
 31
0.0
  0
ARC
  5
1005
330
FED
100
AcDbEntity
  8
CUTTING
100
AcDbCircle
 10
-204.8573499119243
 20
-127.4537425331064
 30
0.0
 40
19.99999999999999
100
AcDbArc
 50
180.0
 51
238.4837602422457
  0
ARC
  5
1006
330
FED
100
AcDbEntity
  8
CUTTING
100
AcDbCircle
 10
-86.5479009615542
 20
-199.9999999999999
 30
0.0
 40
20.00000000000002
100
AcDbArc
 50
238.483760242245
 51
270.0
  0
LINE
  5
1007
330
FED
100
AcDbEntity
  8
CUTTING
100
AcDbLine
 10
0.142650018225595
 20
-219.9999999999999
 30
0.0
 11
-86.5479009615542
 21
-219.9999999999999
 31
0.0
  0
ARC
  5
1009
330
FED
100
AcDbEntity
  8
CUTTING
100
AcDbCircle
 10
221.8573499119243
 20
-2.999999999999943
 30
0.0
 40
3.0
100
AcDbArc
 50
0.0
 51
90.0
  0
ARC
  5
100A
330
FED
100
AcDbEntity
  8
CUTTING
100
AcDbCircle
 10
-221.9999999301497
 20
-3.180235507276336
 30
0.0
 40
3.000000000000002
100
AcDbArc
 50
90.0
 51
180.0
  0
LINE
  5
1033
330
FED
100
AcDbEntity
  8
CUTTING
 62
     1
100
AcDbLine
 10
-155.4297973464068
 20
-9.997710161889302
 30
0.0
 11
-154.4276550131713
 21
-9.997710161889302
 31
0.0
  0
LINE
  5
1034
330
FED
100
AcDbEntity
  8
CUTTING
 62
     1
100
AcDbLine
 10
-153.4276550131713
 20
-10.9977101618893
 30
0.0
 11
-153.4276550131713
 21
-18.99895154665001
 31
0.0
  0
LINE
  5
1035
330
FED
100
AcDbEntity
  8
CUTTING
 62
     1
100
AcDbLine
 10
-154.4276550131713
 20
-19.99895154665001
 30
0.0
 11
-155.4297973464068
 21
-19.99895154665001
 31
0.0
  0
LINE
  5
1036
330
FED
100
AcDbEntity
  8
CUTTING
 62
     1
100
AcDbLine
 10
-156.4297973464068
 20
-18.99895154665001
 30
0.0
 11
-156.4297973464068
 21
-10.9977101618893
 31
0.0
  0
LINE
  5
1037
330
FED
100
AcDbEntity
  8
CUTTING
 62
     1
100
AcDbLine
 10
-132.4287034665222
 20
-10.00124138476184
 30
0.0
 11
-131.4265611332885
 21
-10.00124138476184
 31
0.0
  0
LINE
  5
1038
330
FED
100
AcDbEntity
  8
CUTTING
 62
     1
100
AcDbLine
 10
-130.4265611332885
 20
-11.00124138476184
 30
0.0
 11
-130.4265611332885
 21
-18.99895154665001
 31
0.0
  0
LINE
  5
1039
330
FED
100
AcDbEntity
  8
CUTTING
 62
     1
100
AcDbLine
 10
-131.4265611332885
 20
-19.99895154665001
 30
0.0
 11
-132.4287034665222
 21
-19.99895154665001
 31
0.0
  0
LINE
  5
103A
330
FED
100
AcDbEntity
  8
CUTTING
 62
     1
100
AcDbLine
 10
-133.4287034665222
 20
-18.99895154665001
 30
0.0
 11
-133.4287034665222
 21
-11.00124138476184
 31
0.0
  0
ARC
  5
103B
330
FED
100
AcDbEntity
  8
CUTTING
 62
     1
100
AcDbCircle
 10
-155.4297973464068
 20
-10.9977101618893
 30
0.0
 40
1.0
100
AcDbArc
 50
90.0
 51
180.0
  0
ARC
  5
103C
330
FED
100
AcDbEntity
  8
CUTTING
 62
     1
100
AcDbCircle
 10
-155.4297973464068
 20
-18.99895154665001
 30
0.0
 40
1.0
100
AcDbArc
 50
180.0
 51
270.0
  0
ARC
  5
103D
330
FED
100
AcDbEntity
  8
CUTTING
 62
     1
100
AcDbCircle
 10
-154.4276550131713
 20
-18.99895154665001
 30
0.0
 40
1.0
100
AcDbArc
 50
270.0
 51
0.0
  0
ARC
  5
103E
330
FED
100
AcDbEntity
  8
CUTTING
 62
     1
100
AcDbCircle
 10
-154.4276550131713
 20
-10.9977101618893
 30
0.0
 40
1.0
100
AcDbArc
 50
0.0
 51
90.0
  0
ARC
  5
103F
330
FED
100
AcDbEntity
  8
CUTTING
 62
     1
100
AcDbCircle
 10
-132.4287034665222
 20
-11.00124138476184
 30
0.0
 40
1.0
100
AcDbArc
 50
90.0
 51
180.0
  0
ARC
  5
1040
330
FED
100
AcDbEntity
  8
CUTTING
 62
     1
100
AcDbCircle
 10
-132.4287034665222
 20
-18.99895154665001
 30
0.0
 40
1.0
100
AcDbArc
 50
180.0
 51
270.0
  0
ARC
  5
1041
330
FED
100
AcDbEntity
  8
CUTTING
 62
     1
100
AcDbCircle
 10
-131.4265611332885
 20
-18.99895154665001
 30
0.0
 40
1.0
100
AcDbArc
 50
270.0
 51
0.0
  0
ARC
  5
1042
330
FED
100
AcDbEntity
  8
CUTTING
 62
     1
100
AcDbCircle
 10
-131.4265611332885
 20
-11.00124138476184
 30
0.0
 40
1.0
100
AcDbArc
 50
0.0
 51
90.0
  0
CIRCLE
  5
1043
330
FED
100
AcDbEntity
  8
CUTTING
100
AcDbCircle
 10
-69.99999999999977
 20
0.0
 30
0.0
 40
2.0
  0
CIRCLE
  5
1044
330
FED
100
AcDbEntity
  8
CUTTING
100
AcDbCircle
 10
69.99999999999977
 20
0.0
 30
0.0
 40
2.0
  0
LINE
  5
1046
330
FED
100
AcDbEntity
  8
CUTTING
100
AcDbLine
 10
71.99999999999977
 20
0.0
 30
0.0
 11
221.8573499119243
 21
0.0000000000000568
 31
0.0
  0
LINE
  5
1049
330
FED
100
AcDbEntity
  8
CUTTING
100
AcDbLine
 10
-221.8573499119243
 20
-0.0000000000000568
 30
0.0
 11
-71.99999999999977
 21
0.0
 31
0.0
  0
INSERT
  5
1397
330
FED
100
AcDbEntity
  8
CUTTING
100
AcDbBlockReference
  2
HEADSTRAP_CATCH_SLOT
 10
-109.9226516563681
 20
47.77608260520975
 30
0.0
 41
-1.0
 50
295.9416833579008
  0
ARC
  5
1398
330
FED
100
AcDbEntity
  8
CUTTING
100
AcDbCircle
 10
-105.9958011986089
 20
28.26922434740999
 30
0.0
 40
9.999999999999995
100
AcDbArc
 50
205.9372852156264
 51
244.4758893723312
  0
INSERT
  5
1399
330
FED
100
AcDbEntity
  8
CUTTING
100
AcDbBlockReference
  2
HEADSTRAP_CATCH_SLOT
 10
119.9830330407481
 20
68.46035317947445
 30
0.0
 50
64.0583166420991
  0
LINE
  5
139A
330
FED
100
AcDbEntity
  8
CUTTING
100
AcDbLine
 10
-69.99999999999977
 20
154.8573499119245
 30
0.0
 11
69.99999999999977
 21
154.8573499119245
 31
0.0
  0
LINE
  5
139B
330
FED
100
AcDbEntity
  8
CUTTING
100
AcDbLine
 10
114.9885345970042
 20
23.89535351879738
 30
0.0
 11
159.7347277466206
 21
115.8940890450663
 31
0.0
  0
ARC
  5
139C
330
FED
100
AcDbEntity
  8
CUTTING
100
AcDbCircle
 10
-150.7419943482255
 20
120.2679598736789
 30
0.0
 40
10.0
100
AcDbArc
 50
123.8754694124542
 51
205.9372852156264
  0
ARC
  5
139D
330
FED
100
AcDbEntity
  8
CUTTING
100
AcDbCircle
 10
-69.99999999999977
 20
0.0
 30
0.0
 40
154.8573499119245
100
AcDbArc
 50
90.0
 51
123.8754694124545
  0
ARC
  5
139E
330
FED
100
AcDbEntity
  8
CUTTING
100
AcDbCircle
 10
69.99999999999977
 20
0.0
 30
0.0
 40
154.8573499119245
100
AcDbArc
 50
56.12453058754547
 51
90.0
  0
LINE
  5
139F
330
FED
100
AcDbEntity
  8
CUTTING
100
AcDbLine
 10
-71.80480808227026
 20
0.8617817508926464
 30
0.0
 11
-110.304709953072
 21
19.24518393605814
 31
0.0
  0
INSERT
  5
13A0
330
FED
100
AcDbEntity
  8
CUTTING
100
AcDbBlockReference
  2
HEADSTRAP_CATCH_SLOT
 10
-119.9830330407481
 20
68.46035317947445
 30
0.0
 41
-1.0
 50
295.9416833579008
  0
LINE
  5
13A1
330
FED
100
AcDbEntity
  8
CUTTING
100
AcDbLine
 10
71.80480808227026
 20
0.8617817508926464
 30
0.0
 11
110.304709953072
 21
19.24518393605814
 31
0.0
  0
LINE
  5
13A2
330
FED
100
AcDbEntity
  8
CUTTING
100
AcDbLine
 10
-114.9885345970042
 20
23.89535351879738
 30
0.0
 11
-159.7347277466206
 21
115.8940890450663
 31
0.0
  0
ARC
  5
13A3
330
FED
100
AcDbEntity
  8
CUTTING
100
AcDbCircle
 10
105.9958011986089
 20
28.26922434740999
 30
0.0
 40
9.999999999999995
100
AcDbArc
 50
295.5241106276688
 51
334.0627147843736
  0
ARC
  5
13A4
330
FED
100
AcDbEntity
  8
CUTTING
100
AcDbCircle
 10
150.7419943482255
 20
120.2679598736789
 30
0.0
 40
10.0
100
AcDbArc
 50
334.0627147843733
 51
56.12453058754582
  0
INSERT
  5
13A5
330
FED
100
AcDbEntity
  8
CUTTING
100
AcDbBlockReference
  2
HEADSTRAP_CATCH_SLOT
 10
109.9226516563681
 20
47.77608260520975
 30
0.0
 50
64.0583166420991
  0
ENDBLK
  5
104C
330
FED
100
AcDbEntity
  8
0
100
AcDbBlockEnd
  0
BLOCK
  5
116F
330
116B
100
AcDbEntity
  8
0
100
AcDbBlockBegin
  2
HEADSTRAP_CATCH_TAB
 70
     0
 10
0.0
 20
0.0
 30
0.0
  3
HEADSTRAP_CATCH_TAB
  1

  0
CIRCLE
  5
116C
330
116B
100
AcDbEntity
  8
CUTTING
100
AcDbCircle
 10
9.0
 20
6.0
 30
0.0
 40
0.5
  0
CIRCLE
  5
116D
330
116B
100
AcDbEntity
  8
CUTTING
100
AcDbCircle
 10
9.0
 20
-6.0
 30
0.0
 40
0.5
  0
ELLIPSE
  5
116E
330
116B
100
AcDbEntity
  8
CUTTING
100
AcDbEllipse
 10
9.0
 20
0.0
 30
0.0
 11
9.0
 21
0.0
 31
0.0
210
0.0
220
0.0
230
1.0
 40
0.6666666666666666
 41
1.626370950348834
 42
4.65681435683074
  0
ENDBLK
  5
1170
330
116B
100
AcDbEntity
  8
0
100
AcDbBlockEnd
  0
BLOCK
  5
1223
330
1222
100
AcDbEntity
  8
0
100
AcDbBlockBegin
  2
*D22
 70
     1
 10
0.0
 20
0.0
 30
0.0
  3
*D22
  1

  0
LINE
  5
1225
330
1222
100
AcDbEntity
  8
CUTTING
 62
     0
100
AcDbLine
 10
1424.357931591394
 20
340.1916276745191
 30
0.0
 11
1459.803131218879
 21
340.1916276745191
 31
0.0
  0
LINE
  5
1226
330
1222
100
AcDbEntity
  8
CUTTING
 62
     0
100
AcDbLine
 10
1289.333782677476
 20
120.1916276745191
 30
0.0
 11
1459.803131218879
 21
120.1916276745191
 31
0.0
  0
LINE
  5
1227
330
1222
100
AcDbEntity
  8
CUTTING
 62
     0
100
AcDbLine
 10
1456.203131218879
 20
336.5916276745191
 30
0.0
 11
1456.203131218879
 21
233.7916276745191
 31
0.0
  0
LINE
  5
1228
330
1222
100
AcDbEntity
  8
CUTTING
 62
     0
100
AcDbLine
 10
1456.203131218879
 20
123.7916276745191
 30
0.0
 11
1456.203131218879
 21
226.5916276745191
 31
0.0
  0
SOLID
  5
1229
330
1222
100
AcDbEntity
  8
CUTTING
 62
     0
100
AcDbTrace
 10
1456.803131218879
 20
336.5916276745191
 30
0.0
 11
1455.60313121888
 21
336.5916276745191
 31
0.0
 12
1456.203131218879
 22
340.1916276745191
 32
0.0
 13
1456.203131218879
 23
340.1916276745191
 33
0.0
  0
SOLID
  5
122A
330
1222
100
AcDbEntity
  8
CUTTING
 62
     0
100
AcDbTrace
 10
1455.60313121888
 20
123.7916276745191
 30
0.0
 11
1456.803131218879
 21
123.7916276745191
 31
0.0
 12
1456.203131218879
 22
120.1916276745191
 32
0.0
 13
1456.203131218879
 23
120.1916276745191
 33
0.0
  0
MTEXT
  5
122B
330
1222
100
AcDbEntity
  8
CUTTING
 62
     0
100
AcDbMText
 10
1456.203131218879
 20
230.1916276745191
 30
0.0
 40
3.6
 41
0.0
 71
     5
 72
     1
  1
\A1;220.0000
  0
POINT
  5
122C
330
1222
100
AcDbEntity
  8
DEFPOINTS
 62
     0
100
AcDbPoint
 10
1423.107931591394
 20
340.1916276745191
 30
0.0
  0
POINT
  5
122D
330
1222
100
AcDbEntity
  8
DEFPOINTS
 62
     0
100
AcDbPoint
 10
1288.083782677476
 20
120.1916276745191
 30
0.0
  0
POINT
  5
122E
330
1222
100
AcDbEntity
  8
DEFPOINTS
 62
     0
100
AcDbPoint
 10
1456.203131218879
 20
120.1916276745191
 30
0.0
  0
ENDBLK
  5
1224
330
1222
100
AcDbEntity
  8
0
100
AcDbBlockEnd
  0
BLOCK
  5
1234
330
1233
100
AcDbEntity
  8
0
100
AcDbBlockBegin
  2
*D23
 70
     1
 10
0.0
 20
0.0
 30
0.0
  3
*D23
  1

  0
LINE
  5
1236
330
1233
100
AcDbEntity
  8
CUTTING
 62
     0
100
AcDbLine
 10
1426.107931591394
 20
211.7731851778638
 30
0.0
 11
1426.107931591394
 21
-50.98049680175186
 31
0.0
  0
LINE
  5
1237
330
1233
100
AcDbEntity
  8
CUTTING
 62
     0
100
AcDbLine
 10
976.3932317675458
 20
211.4878851414127
 30
0.0
 11
976.3932317675458
 21
-50.98049680175186
 31
0.0
  0
LINE
  5
1238
330
1233
100
AcDbEntity
  8
CUTTING
 62
     0
100
AcDbLine
 10
1422.507931591394
 20
-47.38049680175186
 30
0.0
 11
1215.05058167947
 21
-47.38049680175186
 31
0.0
  0
LINE
  5
1239
330
1233
100
AcDbEntity
  8
CUTTING
 62
     0
100
AcDbLine
 10
979.9932317675458
 20
-47.38049680175186
 30
0.0
 11
1187.45058167947
 21
-47.38049680175186
 31
0.0
  0
SOLID
  5
123A
330
1233
100
AcDbEntity
  8
CUTTING
 62
     0
100
AcDbTrace
 10
1422.507931591394
 20
-47.98049680175186
 30
0.0
 11
1422.507931591394
 21
-46.78049680175186
 31
0.0
 12
1426.107931591394
 22
-47.38049680175186
 32
0.0
 13
1426.107931591394
 23
-47.38049680175186
 33
0.0
  0
SOLID
  5
123B
330
1233
100
AcDbEntity
  8
CUTTING
 62
     0
100
AcDbTrace
 10
979.9932317675458
 20
-46.78049680175186
 30
0.0
 11
979.9932317675458
 21
-47.98049680175186
 31
0.0
 12
976.3932317675458
 22
-47.38049680175186
 32
0.0
 13
976.3932317675458
 23
-47.38049680175186
 33
0.0
  0
MTEXT
  5
123C
330
1233
100
AcDbEntity
  8
CUTTING
 62
     0
100
AcDbMText
 10
1201.25058167947
 20
-47.38049680175186
 30
0.0
 40
3.6
 41
0.0
 71
     5
 72
     1
  1
\A1;449.7147
  0
POINT
  5
123D
330
1233
100
AcDbEntity
  8
DEFPOINTS
 62
     0
100
AcDbPoint
 10
1426.107931591394
 20
275.1074064261915
 30
0.0
  0
POINT
  5
123E
330
1233
100
AcDbEntity
  8
DEFPOINTS
 62
     0
100
AcDbPoint
 10
976.3932317675458
 20
274.9647564079659
 30
0.0
  0
POINT
  5
123F
330
1233
100
AcDbEntity
  8
DEFPOINTS
 62
     0
100
AcDbPoint
 10
976.3932317675458
 20
-47.38049680175186
 30
0.0
  0
ENDBLK
  5
1235
330
1233
100
AcDbEntity
  8
0
100
AcDbBlockEnd
  0
BLOCK
  5
14C0
330
14BF
100
AcDbEntity
  8
0
100
AcDbBlockBegin
  2
*D24
 70
     1
 10
0.0
 20
0.0
 30
0.0
  3
*D24
  1

  0
LINE
  5
14C2
330
14BF
100
AcDbEntity
  8
CUTTING
 62
     0
100
AcDbLine
 10
976.3932317675458
 20
211.4878851414127
 30
0.0
 11
976.3932317675458
 21
15.60706286436422
 31
0.0
  0
LINE
  5
14C3
330
14BF
100
AcDbEntity
  8
CUTTING
 62
     0
100
AcDbLine
 10
1426.107931591394
 20
211.7731851778639
 30
0.0
 11
1426.107931591394
 21
15.60706286436422
 31
0.0
  0
LINE
  5
14C4
330
14BF
100
AcDbEntity
  8
CUTTING
 62
     0
100
AcDbLine
 10
979.9932317675458
 20
19.20706286436422
 30
0.0
 11
1187.45058167947
 21
19.20706286436422
 31
0.0
  0
LINE
  5
14C5
330
14BF
100
AcDbEntity
  8
CUTTING
 62
     0
100
AcDbLine
 10
1422.507931591394
 20
19.20706286436422
 30
0.0
 11
1215.05058167947
 21
19.20706286436422
 31
0.0
  0
SOLID
  5
14C6
330
14BF
100
AcDbEntity
  8
CUTTING
 62
     0
100
AcDbTrace
 10
979.9932317675458
 20
19.80706286436422
 30
0.0
 11
979.9932317675458
 21
18.60706286436422
 31
0.0
 12
976.3932317675458
 22
19.20706286436422
 32
0.0
 13
976.3932317675458
 23
19.20706286436422
 33
0.0
  0
SOLID
  5
14C7
330
14BF
100
AcDbEntity
  8
CUTTING
 62
     0
100
AcDbTrace
 10
1422.507931591394
 20
18.60706286436422
 30
0.0
 11
1422.507931591394
 21
19.80706286436422
 31
0.0
 12
1426.107931591394
 22
19.20706286436422
 32
0.0
 13
1426.107931591394
 23
19.20706286436422
 33
0.0
  0
MTEXT
  5
14C8
330
14BF
100
AcDbEntity
  8
CUTTING
 62
     0
100
AcDbMText
 10
1201.25058167947
 20
19.20706286436422
 30
0.0
 40
3.6
 41
0.0
 71
     5
 72
     1
  1
\A1;449.7147
  0
POINT
  5
14C9
330
14BF
100
AcDbEntity
  8
DEFPOINTS
 62
     0
100
AcDbPoint
 10
976.3932317675458
 20
274.9647564079659
 30
0.0
  0
POINT
  5
14CA
330
14BF
100
AcDbEntity
  8
DEFPOINTS
 62
     0
100
AcDbPoint
 10
1426.107931591394
 20
275.1074064261916
 30
0.0
  0
POINT
  5
14CB
330
14BF
100
AcDbEntity
  8
DEFPOINTS
 62
     0
100
AcDbPoint
 10
1426.107931591394
 20
19.20706286436422
 30
0.0
  0
ENDBLK
  5
14C1
330
14BF
100
AcDbEntity
  8
0
100
AcDbBlockEnd
  0
BLOCK
  5
14D1
330
14D0
100
AcDbEntity
  8
0
100
AcDbBlockBegin
  2
*D25
 70
     1
 10
0.0
 20
0.0
 30
0.0
  3
*D25
  1

  0
LINE
  5
14D3
330
14D0
100
AcDbEntity
  8
CUTTING
 62
     0
100
AcDbLine
 10
1424.357931591394
 20
340.1916276745192
 30
0.0
 11
1534.607349911924
 21
340.1916276745192
 31
0.0
  0
LINE
  5
14D4
330
14D0
100
AcDbEntity
  8
CUTTING
 62
     0
100
AcDbLine
 10
1289.333782677476
 20
120.1916276745192
 30
0.0
 11
1534.607349911924
 21
120.1916276745192
 31
0.0
  0
LINE
  5
14D5
330
14D0
100
AcDbEntity
  8
CUTTING
 62
     0
100
AcDbLine
 10
1531.007349911924
 20
336.5916276745191
 30
0.0
 11
1531.007349911924
 21
233.7916276745192
 31
0.0
  0
LINE
  5
14D6
330
14D0
100
AcDbEntity
  8
CUTTING
 62
     0
100
AcDbLine
 10
1531.007349911924
 20
123.7916276745192
 30
0.0
 11
1531.007349911924
 21
226.5916276745192
 31
0.0
  0
SOLID
  5
14D7
330
14D0
100
AcDbEntity
  8
CUTTING
 62
     0
100
AcDbTrace
 10
1531.607349911924
 20
336.5916276745191
 30
0.0
 11
1530.407349911924
 21
336.5916276745191
 31
0.0
 12
1531.007349911924
 22
340.1916276745192
 32
0.0
 13
1531.007349911924
 23
340.1916276745192
 33
0.0
  0
SOLID
  5
14D8
330
14D0
100
AcDbEntity
  8
CUTTING
 62
     0
100
AcDbTrace
 10
1530.407349911924
 20
123.7916276745192
 30
0.0
 11
1531.607349911924
 21
123.7916276745192
 31
0.0
 12
1531.007349911924
 22
120.1916276745192
 32
0.0
 13
1531.007349911924
 23
120.1916276745192
 33
0.0
  0
MTEXT
  5
14D9
330
14D0
100
AcDbEntity
  8
CUTTING
 62
     0
100
AcDbMText
 10
1531.007349911924
 20
230.1916276745192
 30
0.0
 40
3.6
 41
0.0
 71
     5
 72
     1
  1
\A1;220.0000
  0
POINT
  5
14DA
330
14D0
100
AcDbEntity
  8
DEFPOINTS
 62
     0
100
AcDbPoint
 10
1348.179256635432
 20
340.1916276745192
 30
0.0
  0
POINT
  5
14DB
330
14D0
100
AcDbEntity
  8
DEFPOINTS
 62
     0
100
AcDbPoint
 10
1231.548030602612
 20
120.1916276745192
 30
0.0
  0
POINT
  5
14DC
330
14D0
100
AcDbEntity
  8
DEFPOINTS
 62
     0
100
AcDbPoint
 10
1531.007349911924
 20
120.1916276745192
 30
0.0
  0
ENDBLK
  5
14D2
330
14D0
100
AcDbEntity
  8
0
100
AcDbBlockEnd
  0
ENDSEC
  0
SECTION
  2
ENTITIES
  0
LINE
  5
502
330
1F
100
AcDbEntity
  8
CUTTING
100
AcDbLine
 10
369.2469426247795
 20
125.0961122441136
 30
0.0
 11
487.5563915751495
 21
197.6423697110071
 31
0.0
  0
LINE
  5
503
330
1F
100
AcDbEntity
  8
CUTTING
100
AcDbLine
 10
496.8162872646607
 20
339.1459529352041
 30
0.0
 11
496.8162872646607
 21
214.9775104385488
 31
0.0
  0
ARC
  5
505
330
1F
100
AcDbEntity
  8
CUTTING
100
AcDbCircle
 10
477.1015873011117
 20
214.6922104020977
 30
0.0
 40
19.99999999999999
100
AcDbArc
 50
301.5162397577545
 51
0.0
  0
ARC
  5
506
330
1F
100
AcDbEntity
  8
CUTTING
100
AcDbCircle
 10
358.7921383507418
 20
142.1459529352041
 30
0.0
 40
20.00000000000002
100
AcDbArc
 50
270.0
 51
301.5162397577546
  0
LINE
  5
507
330
1F
100
AcDbEntity
  8
CUTTING
100
AcDbLine
 10
397.1013433686294
 20
403.1212589459236
 30
0.0
 11
397.1013433686294
 21
413.1214949410274
 31
0.0
  0
ARC
  5
508
330
1F
100
AcDbEntity
  8
CUTTING
100
AcDbCircle
 10
387.1013433686294
 20
413.1214949410274
 30
0.0
 40
10.0
100
AcDbArc
 50
0.0
 51
90.0
  0
ARC
  5
509
330
1F
100
AcDbEntity
  8
CUTTING
100
AcDbCircle
 10
387.1013433686294
 20
403.1212589459236
 30
0.0
 40
10.0
100
AcDbArc
 50
270.0
 51
0.0
  0
LINE
  5
518
330
1F
100
AcDbEntity
  8
CUTTING
 62
     1
100
AcDbLine
 10
404.1023407828076
 20
376.6959480098168
 30
0.0
 11
403.1001984495737
 21
376.6959480098168
 31
0.0
  0
LINE
  5
519
330
1F
100
AcDbEntity
  8
CUTTING
 62
     1
100
AcDbLine
 10
402.1001984495737
 20
375.6959480098168
 30
0.0
 11
402.1001984495737
 21
367.6982378479286
 31
0.0
  0
LINE
  5
51A
330
1F
100
AcDbEntity
  8
CUTTING
 62
     1
100
AcDbLine
 10
403.1001984495737
 20
366.6982378479286
 30
0.0
 11
404.1023407828076
 21
366.6982378479286
 31
0.0
  0
LINE
  5
51B
330
1F
100
AcDbEntity
  8
CUTTING
 62
     1
100
AcDbLine
 10
405.1023407828076
 20
367.6982378479286
 30
0.0
 11
405.1023407828076
 21
375.6959480098168
 31
0.0
  0
ARC
  5
520
330
1F
100
AcDbEntity
  8
CUTTING
 62
     1
100
AcDbCircle
 10
404.1023407828076
 20
375.6959480098168
 30
0.0
 40
1.0
100
AcDbArc
 50
0.0
 51
90.0
  0
ARC
  5
521
330
1F
100
AcDbEntity
  8
CUTTING
 62
     1
100
AcDbCircle
 10
404.1023407828076
 20
367.6982378479286
 30
0.0
 40
1.0
100
AcDbArc
 50
270.0
 51
0.0
  0
ARC
  5
522
330
1F
100
AcDbEntity
  8
CUTTING
 62
     1
100
AcDbCircle
 10
403.1001984495737
 20
367.6982378479286
 30
0.0
 40
1.0
100
AcDbArc
 50
180.0
 51
270.0
  0
ARC
  5
523
330
1F
100
AcDbEntity
  8
CUTTING
 62
     1
100
AcDbCircle
 10
403.1001984495737
 20
375.6959480098168
 30
0.0
 40
1.0
100
AcDbArc
 50
90.0
 51
180.0
  0
LINE
  5
538
330
1F
100
AcDbEntity
  8
CUTTING
100
AcDbLine
 10
506.6102672376189
 20
356.6969533994745
 30
0.0
 11
29.202021911099
 21
356.6980106457403
 31
0.0
  0
LINE
  5
539
330
1F
100
AcDbEntity
  8
CUTTING
100
AcDbLine
 10
506.6102672376189
 20
386.6971893945786
 30
0.0
 11
29.20158744081215
 21
386.6971893945787
 31
0.0
  0
LINE
  5
53C
330
1F
100
AcDbEntity
  8
CUTTING
100
AcDbLine
 10
147.1018313732945
 20
403.1212589459236
 30
0.0
 11
147.1018313732945
 21
413.1214949410274
 31
0.0
  0
ARC
  5
53D
330
1F
100
AcDbEntity
  8
CUTTING
100
AcDbCircle
 10
157.1018313732945
 20
413.1214949410274
 30
0.0
 40
10.0
100
AcDbArc
 50
90.0
 51
180.0
  0
ARC
  5
53E
330
1F
100
AcDbEntity
  8
CUTTING
100
AcDbCircle
 10
157.1018313732945
 20
403.1212589459236
 30
0.0
 40
10.0
100
AcDbArc
 50
180.0
 51
270.0
  0
LINE
  5
540
330
1F
100
AcDbEntity
  8
CUTTING
 62
     1
100
AcDbLine
 10
117.0997400792317
 20
376.6994792326892
 30
0.0
 11
118.1018824124673
 21
376.6994792326892
 31
0.0
  0
LINE
  5
541
330
1F
100
AcDbEntity
  8
CUTTING
 62
     1
100
AcDbLine
 10
119.1018824124673
 20
375.6994792326892
 30
0.0
 11
119.1018824124673
 21
367.6982378479286
 31
0.0
  0
LINE
  5
542
330
1F
100
AcDbEntity
  8
CUTTING
 62
     1
100
AcDbLine
 10
118.1018824124673
 20
366.6982378479286
 30
0.0
 11
117.0997400792317
 21
366.6982378479286
 31
0.0
  0
LINE
  5
543
330
1F
100
AcDbEntity
  8
CUTTING
 62
     1
100
AcDbLine
 10
116.0997400792317
 20
367.6982378479286
 30
0.0
 11
116.0997400792317
 21
375.6994792326892
 31
0.0
  0
LINE
  5
544
330
1F
100
AcDbEntity
  8
CUTTING
 62
     1
100
AcDbLine
 10
140.1008339591163
 20
376.6959480098168
 30
0.0
 11
141.1029762923502
 21
376.6959480098168
 31
0.0
  0
LINE
  5
545
330
1F
100
AcDbEntity
  8
CUTTING
 62
     1
100
AcDbLine
 10
142.1029762923502
 20
375.6959480098168
 30
0.0
 11
142.1029762923502
 21
367.6982378479286
 31
0.0
  0
LINE
  5
546
330
1F
100
AcDbEntity
  8
CUTTING
 62
     1
100
AcDbLine
 10
141.1029762923502
 20
366.6982378479286
 30
0.0
 11
140.1008339591163
 21
366.6982378479286
 31
0.0
  0
LINE
  5
547
330
1F
100
AcDbEntity
  8
CUTTING
 62
     1
100
AcDbLine
 10
139.1008339591163
 20
367.6982378479286
 30
0.0
 11
139.1008339591163
 21
375.6959480098168
 31
0.0
  0
ARC
  5
548
330
1F
100
AcDbEntity
  8
CUTTING
 62
     1
100
AcDbCircle
 10
117.0997400792317
 20
375.6994792326892
 30
0.0
 40
1.0
100
AcDbArc
 50
90.0
 51
180.0
  0
ARC
  5
549
330
1F
100
AcDbEntity
  8
CUTTING
 62
     1
100
AcDbCircle
 10
117.0997400792317
 20
367.6982378479286
 30
0.0
 40
1.0
100
AcDbArc
 50
180.0
 51
270.0
  0
ARC
  5
54A
330
1F
100
AcDbEntity
  8
CUTTING
 62
     1
100
AcDbCircle
 10
118.1018824124673
 20
367.6982378479286
 30
0.0
 40
1.0
100
AcDbArc
 50
270.0
 51
0.0
  0
ARC
  5
54B
330
1F
100
AcDbEntity
  8
CUTTING
 62
     1
100
AcDbCircle
 10
118.1018824124673
 20
375.6994792326892
 30
0.0
 40
1.0
100
AcDbArc
 50
0.0
 51
90.0
  0
ARC
  5
54C
330
1F
100
AcDbEntity
  8
CUTTING
 62
     1
100
AcDbCircle
 10
140.1008339591163
 20
375.6959480098168
 30
0.0
 40
1.0
100
AcDbArc
 50
90.0
 51
180.0
  0
ARC
  5
54D
330
1F
100
AcDbEntity
  8
CUTTING
 62
     1
100
AcDbCircle
 10
140.1008339591163
 20
367.6982378479286
 30
0.0
 40
1.0
100
AcDbArc
 50
180.0
 51
270.0
  0
ARC
  5
54E
330
1F
100
AcDbEntity
  8
CUTTING
 62
     1
100
AcDbCircle
 10
141.1029762923502
 20
367.6982378479286
 30
0.0
 40
1.0
100
AcDbArc
 50
270.0
 51
0.0
  0
ARC
  5
54F
330
1F
100
AcDbEntity
  8
CUTTING
 62
     1
100
AcDbCircle
 10
141.1029762923502
 20
375.6959480098168
 30
0.0
 40
1.0
100
AcDbArc
 50
0.0
 51
90.0
  0
LINE
  5
565
330
1F
100
AcDbEntity
  8
CUTTING
100
AcDbLine
 10
157.1018313732945
 20
423.1214949410274
 30
0.0
 11
387.1013433686294
 21
423.1214949410274
 31
0.0
  0
LINE
  5
566
330
1F
100
AcDbEntity
  8
CUTTING
100
AcDbLine
 10
387.1013433686294
 20
393.1212589459236
 30
0.0
 11
157.1018313732945
 21
393.1212589459236
 31
0.0
  0
LINE
  5
567
330
1F
100
AcDbEntity
  8
CUTTING
 62
     1
100
AcDbLine
 10
427.1034346626922
 20
332.1494841580765
 30
0.0
 11
426.1012923294566
 21
332.1494841580765
 31
0.0
  0
LINE
  5
568
330
1F
100
AcDbEntity
  8
CUTTING
 62
     1
100
AcDbLine
 10
425.1012923294566
 20
331.1494841580765
 30
0.0
 11
425.1012923294566
 21
323.1482427733158
 31
0.0
  0
LINE
  5
569
330
1F
100
AcDbEntity
  8
CUTTING
 62
     1
100
AcDbLine
 10
426.1012923294566
 20
322.1482427733158
 30
0.0
 11
427.1034346626922
 21
322.1482427733158
 31
0.0
  0
LINE
  5
56A
330
1F
100
AcDbEntity
  8
CUTTING
 62
     1
100
AcDbLine
 10
428.1034346626922
 20
323.1482427733158
 30
0.0
 11
428.1034346626922
 21
331.1494841580765
 31
0.0
  0
LINE
  5
56B
330
1F
100
AcDbEntity
  8
CUTTING
 62
     1
100
AcDbLine
 10
404.1023407828076
 20
332.145952935204
 30
0.0
 11
403.1001984495737
 21
332.145952935204
 31
0.0
  0
LINE
  5
56C
330
1F
100
AcDbEntity
  8
CUTTING
 62
     1
100
AcDbLine
 10
402.1001984495737
 20
331.145952935204
 30
0.0
 11
402.1001984495737
 21
323.1482427733158
 31
0.0
  0
LINE
  5
56D
330
1F
100
AcDbEntity
  8
CUTTING
 62
     1
100
AcDbLine
 10
403.1001984495737
 20
322.1482427733158
 30
0.0
 11
404.1023407828076
 21
322.1482427733158
 31
0.0
  0
LINE
  5
56E
330
1F
100
AcDbEntity
  8
CUTTING
 62
     1
100
AcDbLine
 10
405.1023407828076
 20
323.1482427733158
 30
0.0
 11
405.1023407828076
 21
331.145952935204
 31
0.0
  0
ARC
  5
56F
330
1F
100
AcDbEntity
  8
CUTTING
 62
     1
100
AcDbCircle
 10
427.1034346626922
 20
331.1494841580765
 30
0.0
 40
1.0
100
AcDbArc
 50
0.0
 51
90.0
  0
ARC
  5
570
330
1F
100
AcDbEntity
  8
CUTTING
 62
     1
100
AcDbCircle
 10
427.1034346626922
 20
323.1482427733158
 30
0.0
 40
1.0
100
AcDbArc
 50
270.0
 51
0.0
  0
ARC
  5
571
330
1F
100
AcDbEntity
  8
CUTTING
 62
     1
100
AcDbCircle
 10
426.1012923294566
 20
323.1482427733158
 30
0.0
 40
1.0
100
AcDbArc
 50
180.0
 51
270.0
  0
ARC
  5
572
330
1F
100
AcDbEntity
  8
CUTTING
 62
     1
100
AcDbCircle
 10
426.1012923294566
 20
331.1494841580765
 30
0.0
 40
1.0
100
AcDbArc
 50
90.0
 51
180.0
  0
ARC
  5
573
330
1F
100
AcDbEntity
  8
CUTTING
 62
     1
100
AcDbCircle
 10
404.1023407828076
 20
331.145952935204
 30
0.0
 40
1.0
100
AcDbArc
 50
0.0
 51
90.0
  0
ARC
  5
574
330
1F
100
AcDbEntity
  8
CUTTING
 62
     1
100
AcDbCircle
 10
404.1023407828076
 20
323.1482427733158
 30
0.0
 40
1.0
100
AcDbArc
 50
270.0
 51
0.0
  0
ARC
  5
575
330
1F
100
AcDbEntity
  8
CUTTING
 62
     1
100
AcDbCircle
 10
403.1001984495737
 20
323.1482427733158
 30
0.0
 40
1.0
100
AcDbArc
 50
180.0
 51
270.0
  0
ARC
  5
576
330
1F
100
AcDbEntity
  8
CUTTING
 62
     1
100
AcDbCircle
 10
403.1001984495737
 20
331.145952935204
 30
0.0
 40
1.0
100
AcDbArc
 50
90.0
 51
180.0
  0
LINE
  5
578
330
1F
100
AcDbEntity
  8
CUTTING
100
AcDbLine
 10
493.8162872646607
 20
342.1459529352041
 30
0.0
 11
272.1015873709619
 21
342.145952935204
 31
0.0
  0
LINE
  5
579
330
1F
100
AcDbEntity
  8
CUTTING
100
AcDbLine
 10
272.1015873709619
 20
122.1459529352041
 30
0.0
 11
358.7921383507418
 21
122.1459529352041
 31
0.0
  0
LINE
  5
57A
330
1F
100
AcDbEntity
  8
CUTTING
100
AcDbLine
 10
174.9562321171443
 20
125.0961122441136
 30
0.0
 11
56.64678316677436
 21
197.6423697110071
 31
0.0
  0
LINE
  5
57B
330
1F
100
AcDbEntity
  8
CUTTING
100
AcDbLine
 10
47.10158744081203
 20
339.145952935204
 30
0.0
 11
47.10158744081201
 21
214.6922104020977
 31
0.0
  0
ARC
  5
57D
330
1F
100
AcDbEntity
  8
CUTTING
100
AcDbCircle
 10
67.10158744081207
 20
214.6922104020977
 30
0.0
 40
19.99999999999999
100
AcDbArc
 50
180.0
 51
238.4837602422455
  0
ARC
  5
57E
330
1F
100
AcDbEntity
  8
CUTTING
100
AcDbCircle
 10
185.4110363911821
 20
142.1459529352041
 30
0.0
 40
20.00000000000002
100
AcDbArc
 50
238.4837602422454
 51
270.0
  0
LINE
  5
57F
330
1F
100
AcDbEntity
  8
CUTTING
 62
     1
100
AcDbLine
 10
117.0997400792316
 20
332.1494841580765
 30
0.0
 11
118.1018824124673
 21
332.1494841580765
 31
0.0
  0
LINE
  5
580
330
1F
100
AcDbEntity
  8
CUTTING
 62
     1
100
AcDbLine
 10
119.1018824124673
 20
331.1494841580765
 30
0.0
 11
119.1018824124673
 21
323.1482427733158
 31
0.0
  0
LINE
  5
581
330
1F
100
AcDbEntity
  8
CUTTING
 62
     1
100
AcDbLine
 10
118.1018824124673
 20
322.1482427733158
 30
0.0
 11
117.0997400792316
 21
322.1482427733158
 31
0.0
  0
LINE
  5
582
330
1F
100
AcDbEntity
  8
CUTTING
 62
     1
100
AcDbLine
 10
116.0997400792316
 20
323.1482427733158
 30
0.0
 11
116.0997400792316
 21
331.1494841580765
 31
0.0
  0
LINE
  5
583
330
1F
100
AcDbEntity
  8
CUTTING
 62
     1
100
AcDbLine
 10
140.1008339591162
 20
332.145952935204
 30
0.0
 11
141.1029762923501
 21
332.145952935204
 31
0.0
  0
LINE
  5
584
330
1F
100
AcDbEntity
  8
CUTTING
 62
     1
100
AcDbLine
 10
142.1029762923501
 20
331.145952935204
 30
0.0
 11
142.1029762923501
 21
323.1482427733158
 31
0.0
  0
LINE
  5
585
330
1F
100
AcDbEntity
  8
CUTTING
 62
     1
100
AcDbLine
 10
141.1029762923501
 20
322.1482427733158
 30
0.0
 11
140.1008339591162
 21
322.1482427733158
 31
0.0
  0
LINE
  5
586
330
1F
100
AcDbEntity
  8
CUTTING
 62
     1
100
AcDbLine
 10
139.1008339591162
 20
323.1482427733158
 30
0.0
 11
139.1008339591162
 21
331.145952935204
 31
0.0
  0
ARC
  5
587
330
1F
100
AcDbEntity
  8
CUTTING
 62
     1
100
AcDbCircle
 10
117.0997400792316
 20
331.1494841580765
 30
0.0
 40
1.0
100
AcDbArc
 50
90.0
 51
180.0
  0
ARC
  5
588
330
1F
100
AcDbEntity
  8
CUTTING
 62
     1
100
AcDbCircle
 10
117.0997400792316
 20
323.1482427733158
 30
0.0
 40
1.0
100
AcDbArc
 50
180.0
 51
270.0
  0
ARC
  5
589
330
1F
100
AcDbEntity
  8
CUTTING
 62
     1
100
AcDbCircle
 10
118.1018824124673
 20
323.1482427733158
 30
0.0
 40
1.0
100
AcDbArc
 50
270.0
 51
0.0
  0
ARC
  5
58A
330
1F
100
AcDbEntity
  8
CUTTING
 62
     1
100
AcDbCircle
 10
118.1018824124673
 20
331.1494841580765
 30
0.0
 40
1.0
100
AcDbArc
 50
0.0
 51
90.0
  0
ARC
  5
58B
330
1F
100
AcDbEntity
  8
CUTTING
 62
     1
100
AcDbCircle
 10
140.1008339591162
 20
331.145952935204
 30
0.0
 40
1.0
100
AcDbArc
 50
90.0
 51
180.0
  0
ARC
  5
58C
330
1F
100
AcDbEntity
  8
CUTTING
 62
     1
100
AcDbCircle
 10
140.1008339591162
 20
323.1482427733158
 30
0.0
 40
1.0
100
AcDbArc
 50
180.0
 51
270.0
  0
ARC
  5
58D
330
1F
100
AcDbEntity
  8
CUTTING
 62
     1
100
AcDbCircle
 10
141.1029762923501
 20
323.1482427733158
 30
0.0
 40
1.0
100
AcDbArc
 50
270.0
 51
0.0
  0
ARC
  5
58E
330
1F
100
AcDbEntity
  8
CUTTING
 62
     1
100
AcDbCircle
 10
141.1029762923501
 20
331.145952935204
 30
0.0
 40
1.0
100
AcDbArc
 50
0.0
 51
90.0
  0
LINE
  5
58F
330
1F
100
AcDbEntity
  8
CUTTING
100
AcDbLine
 10
50.10158744081203
 20
342.145952935204
 30
0.0
 11
272.386887407413
 21
342.145952935204
 31
0.0
  0
LINE
  5
590
330
1F
100
AcDbEntity
  8
CUTTING
100
AcDbLine
 10
272.1015873709619
 20
122.1459529352041
 30
0.0
 11
185.4110363911821
 21
122.1459529352041
 31
0.0
  0
LINE
  5
6AA
330
1F
100
AcDbEntity
  8
CUTTING
100
AcDbLine
 10
719.6102672376189
 20
371.6970713970266
 30
0.0
 11
719.6102672376189
 21
371.6970713970266
 31
0.0
  0
LINE
  5
6BE
330
1F
100
AcDbEntity
  8
CUTTING
100
AcDbLine
 10
511.6102672376189
 20
381.6970713970265
 30
0.0
 11
709.6102672376189
 21
381.6970713970266
 31
0.0
  0
LINE
  5
6BF
330
1F
100
AcDbEntity
  8
CUTTING
100
AcDbLine
 10
511.6102672376189
 20
361.6970713970265
 30
0.0
 11
709.6102672376189
 21
361.6970713970266
 31
0.0
  0
ARC
  5
6C1
330
1F
100
AcDbEntity
  8
CUTTING
100
AcDbCircle
 10
709.6102672376189
 20
371.6970713970266
 30
0.0
 40
9.999999999999998
100
AcDbArc
 50
0.0
 51
90.0
  0
ARC
  5
6C2
330
1F
100
AcDbEntity
  8
CUTTING
100
AcDbCircle
 10
709.6102672376189
 20
371.6970713970266
 30
0.0
 40
10.0
100
AcDbArc
 50
270.0
 51
0.0
  0
LINE
  5
6C3
330
1F
100
AcDbEntity
  8
CUTTING
100
AcDbLine
 10
509.1102672376189
 20
359.1969533994745
 30
0.0
 11
509.1102672376189
 21
359.1970713970265
 31
0.0
  0
LINE
  5
6C5
330
1F
100
AcDbEntity
  8
CUTTING
100
AcDbLine
 10
509.1102672376189
 20
384.1970713970265
 30
0.0
 11
509.1102672376189
 21
384.1971893945786
 31
0.0
  0
ARC
  5
91B
330
1F
100
AcDbEntity
  8
CUTTING
100
AcDbCircle
 10
506.6102672376189
 20
384.1971893945786
 30
0.0
 40
2.5
100
AcDbArc
 50
0.0
 51
90.0
  0
ARC
  5
91C
330
1F
100
AcDbEntity
  8
CUTTING
100
AcDbCircle
 10
511.6102672376189
 20
384.1970713970265
 30
0.0
 40
2.499999999999999
100
AcDbArc
 50
180.0
 51
270.0
  0
ARC
  5
91E
330
1F
100
AcDbEntity
  8
CUTTING
100
AcDbCircle
 10
511.6102672376189
 20
359.1970713970265
 30
0.0
 40
2.5
100
AcDbArc
 50
90.0
 51
180.0
  0
ARC
  5
91F
330
1F
100
AcDbEntity
  8
CUTTING
100
AcDbCircle
 10
506.6102672376189
 20
359.1969533994745
 30
0.0
 40
2.5
100
AcDbArc
 50
270.0
 51
0.0
  0
INSERT
  5
98A
330
1F
100
AcDbEntity
  8
DIMENSIONS
100
AcDbBlockReference
  2
FRAME_SIZE_BUCKLE
 10
0.0
 20
0.0
 30
0.0
  0
INSERT
  5
B75
330
1F
100
AcDbEntity
  8
DIMENSIONS
100
AcDbBlockReference
  2
FRAME_SIZE_TAB
 10
24.5029595936137
 20
-0.0000000000000598
 30
0.0
  0
INSERT
  5
B76
330
1F
100
AcDbEntity
  8
DIMENSIONS
100
AcDbBlockReference
  2
FRAME_SIZE_TAB
 10
12.5029595936137
 20
-0.0000000000000627
 30
0.0
  0
INSERT
  5
B77
330
1F
100
AcDbEntity
  8
DIMENSIONS
100
AcDbBlockReference
  2
FRAME_SIZE_TAB
 10
0.5029595936136957
 20
-0.0000000000000657
 30
0.0
  0
INSERT
  5
B78
330
1F
100
AcDbEntity
  8
DIMENSIONS
100
AcDbBlockReference
  2
FRAME_SIZE_TAB
 10
-11.4970404063863
 20
-0.0000000000000686
 30
0.0
  0
INSERT
  5
B79
330
1F
100
AcDbEntity
  8
DIMENSIONS
100
AcDbBlockReference
  2
FRAME_SIZE_TAB
 10
-23.4970404063863
 20
-0.0000000000000715
 30
0.0
  0
INSERT
  5
B7A
330
1F
100
AcDbEntity
  8
DIMENSIONS
100
AcDbBlockReference
  2
FRAME_SIZE_TAB
 10
-35.4970404063863
 20
-0.0000000000000745
 30
0.0
  0
INSERT
  5
B7B
330
1F
100
AcDbEntity
  8
DIMENSIONS
100
AcDbBlockReference
  2
FRAME_SIZE_TAB
 10
-47.4970404063863
 20
-0.0000000000000774
 30
0.0
  0
INSERT
  5
B7C
330
1F
100
AcDbEntity
  8
DIMENSIONS
100
AcDbBlockReference
  2
FRAME_SIZE_TAB
 10
-59.4970404063863
 20
-0.0000000000000804
 30
0.0
  0
INSERT
  5
B7D
330
1F
100
AcDbEntity
  8
DIMENSIONS
100
AcDbBlockReference
  2
FRAME_SIZE_TAB
 10
-71.4970404063863
 20
-0.0000000000000833
 30
0.0
  0
INSERT
  5
B7E
330
1F
100
AcDbEntity
  8
DIMENSIONS
100
AcDbBlockReference
  2
FRAME_SIZE_TAB
 10
-83.4970404063863
 20
-0.0000000000000862
 30
0.0
  0
INSERT
  5
B7F
330
1F
100
AcDbEntity
  8
DIMENSIONS
100
AcDbBlockReference
  2
FRAME_SIZE_TAB
 10
-95.4970404063863
 20
-0.0000000000000892
 30
0.0
  0
INSERT
  5
B80
330
1F
100
AcDbEntity
  8
DIMENSIONS
100
AcDbBlockReference
  2
FRAME_SIZE_TAB
 10
-107.4970404063863
 20
-0.0000000000000921
 30
0.0
  0
INSERT
  5
B81
330
1F
100
AcDbEntity
  8
DIMENSIONS
100
AcDbBlockReference
  2
FRAME_SIZE_TAB
 10
-119.4970404063863
 20
-0.0000000000000951
 30
0.0
  0
INSERT
  5
B82
330
1F
100
AcDbEntity
  8
DIMENSIONS
100
AcDbBlockReference
  2
FRAME_SIZE_TAB
 10
-131.4970404063863
 20
-0.000000000000098
 30
0.0
  0
INSERT
  5
B83
330
1F
100
AcDbEntity
  8
DIMENSIONS
100
AcDbBlockReference
  2
FRAME_SIZE_TAB
 10
-143.4970404063863
 20
-0.0000000000001009
 30
0.0
  0
INSERT
  5
B84
330
1F
100
AcDbEntity
  8
DIMENSIONS
100
AcDbBlockReference
  2
FRAME_SIZE_TAB
 10
-155.4970404063863
 20
-0.0000000000001039
 30
0.0
  0
INSERT
  5
BB7
330
1F
100
AcDbEntity
  8
DIMENSIONS
100
AcDbBlockReference
  2
HEADSTRAP_CATCH_SLOT
 10
425.161124083661
 20
371.698858540309
 30
0.0
  0
INSERT
  5
C0C
330
1F
100
AcDbEntity
  8
DIMENSIONS
100
AcDbBlockReference
  2
BROW_BAND_TAB
 10
0.0
 20
0.0
 30
0.0
  0
INSERT
  5
C21
330
1F
100
AcDbEntity
  8
DIMENSIONS
100
AcDbBlockReference
  2
BROW_BAND_TAB
 10
-23.0
 20
-0.0000000000000056
 30
0.0
  0
INSERT
  5
C22
330
1F
100
AcDbEntity
  8
DIMENSIONS
100
AcDbBlockReference
  2
BROW_BAND_TAB
 10
544.2031747419239
 20
0.0
 30
0.0
 41
-1.0
  0
INSERT
  5
C23
330
1F
100
AcDbEntity
  8
DIMENSIONS
100
AcDbBlockReference
  2
BROW_BAND_TAB
 10
567.2031747419239
 20
-0.0000000000000056
 30
0.0
 41
-1.0
  0
ARC
  5
C24
330
1F
100
AcDbEntity
  8
CUTTING
100
AcDbCircle
 10
493.8162872646607
 20
339.1459529352041
 30
0.0
 40
3.0
100
AcDbArc
 50
0.0
 51
90.0
  0
ARC
  5
C25
330
1F
100
AcDbEntity
  8
CUTTING
100
AcDbCircle
 10
50.10158744081203
 20
339.145952935204
 30
0.0
 40
3.000000000000002
100
AcDbArc
 50
90.0
 51
179.9999999999999
  0
LINE
  5
D57
330
1F
100
AcDbEntity
  8
CUTTING
100
AcDbLine
 10
1329.827042632587
 20
70.55577747472756
 30
0.0
 11
1329.827042632587
 21
80.55601346983133
 31
0.0
  0
ARC
  5
D58
330
1F
100
AcDbEntity
  8
CUTTING
100
AcDbCircle
 10
1319.827042632587
 20
80.55601346983133
 30
0.0
 40
10.0
100
AcDbArc
 50
0.0
 51
90.0
  0
ARC
  5
D59
330
1F
100
AcDbEntity
  8
CUTTING
100
AcDbCircle
 10
1319.827042632587
 20
70.55577747472756
 30
0.0
 40
10.0
100
AcDbArc
 50
270.0
 51
0.0
  0
LINE
  5
D64
330
1F
100
AcDbEntity
  8
CUTTING
100
AcDbLine
 10
1079.827530637252
 20
70.55577747472756
 30
0.0
 11
1079.827530637252
 21
80.55601346983133
 31
0.0
  0
ARC
  5
D65
330
1F
100
AcDbEntity
  8
CUTTING
100
AcDbCircle
 10
1089.827530637252
 20
80.55601346983133
 30
0.0
 40
10.0
100
AcDbArc
 50
90.0
 51
180.0
  0
ARC
  5
D66
330
1F
100
AcDbEntity
  8
CUTTING
100
AcDbCircle
 10
1089.827530637252
 20
70.55577747472756
 30
0.0
 40
10.0
100
AcDbArc
 50
180.0
 51
270.0
  0
LINE
  5
D77
330
1F
100
AcDbEntity
  8
CUTTING
100
AcDbLine
 10
1089.827530637252
 20
90.55601346983133
 30
0.0
 11
1319.827042632587
 21
90.55601346983133
 31
0.0
  0
LINE
  5
D78
330
1F
100
AcDbEntity
  8
CUTTING
100
AcDbLine
 10
1319.827042632587
 20
60.55577747472756
 30
0.0
 11
1089.827530637252
 21
60.55577747472756
 31
0.0
  0
INSERT
  5
DC0
330
1F
100
AcDbEntity
  8
DIMENSIONS
100
AcDbBlockReference
  2
BROW_BAND_TAB
 10
932.725699263958
 20
-332.5654814711961
 30
0.0
  0
INSERT
  5
DC1
330
1F
100
AcDbEntity
  8
DIMENSIONS
100
AcDbBlockReference
  2
BROW_BAND_TAB
 10
909.725699263958
 20
-332.5654814711961
 30
0.0
  0
INSERT
  5
DC2
330
1F
100
AcDbEntity
  8
DIMENSIONS
100
AcDbBlockReference
  2
BROW_BAND_TAB
 10
1476.928874005882
 20
-332.5654814711961
 30
0.0
 41
-1.0
  0
INSERT
  5
DC3
330
1F
100
AcDbEntity
  8
DIMENSIONS
100
AcDbBlockReference
  2
BROW_BAND_TAB
 10
1499.928874005882
 20
-332.5654814711961
 30
0.0
 41
-1.0
  0
INSERT
  5
E08
330
1F
100
AcDbEntity
  8
CUTTING
100
AcDbBlockReference
  2
HEADSTRAP
 10
1197.657486701657
 20
562.0773088387779
 30
0.0
  0
INSERT
  5
104D
330
1F
100
AcDbEntity
  8
CUTTING
100
AcDbBlockReference
  2
FACEPLATE_WITH_HOOD
 10
1201.25058167947
 20
340.1916276745191
 30
0.0
  0
INSERT
  5
1166
330
1F
100
AcDbEntity
  8
CUTTING
100
AcDbBlockReference
  2
FRAME_SIZE_TAB
 10
0.0
 20
0.0
 30
0.0
  0
INSERT
  5
121C
330
1F
100
AcDbEntity
  8
CUTTING
100
AcDbBlockReference
  2
HEADSTRAP_CATCH_TAB
 10
272.1015873709619
 20
318.1470978542599
 30
0.0
 50
90.0
  0
INSERT
  5
121D
330
1F
100
AcDbEntity
  8
CUTTING
100
AcDbBlockReference
  2
HEADSTRAP_CATCH_TAB
 10
272.101587370962
 20
380.6970929288726
 30
0.0
 50
270.0
  0
INSERT
  5
128B
330
1F
100
AcDbEntity
  8
CUTTING
100
AcDbBlockReference
  2
HEADSTRAP_CATCH_SLOT
 10
1321.233614720218
 20
408.6519808539936
 30
0.0
 50
64.0583166420991
  0
INSERT
  5
12BF
330
1F
100
AcDbEntity
  8
CUTTING
100
AcDbBlockReference
  2
HEADSTRAP_CATCH_SLOT
 10
1311.173233335838
 20
387.9677102797289
 30
0.0
 50
64.0583166420991
  0
LINE
  5
12C1
330
1F
100
AcDbEntity
  8
CUTTING
100
AcDbLine
 10
1316.239116276474
 20
364.0869811933165
 30
0.0
 11
1360.985309426091
 21
456.0857167195854
 31
0.0
  0
ARC
  5
12C6
330
1F
100
AcDbEntity
  8
CUTTING
100
AcDbCircle
 10
1271.25058167947
 20
340.1916276745191
 30
0.0
 40
154.8573499119245
100
AcDbArc
 50
56.12453058754546
 51
90.0
  0
LINE
  5
12CB
330
1F
100
AcDbEntity
  8
CUTTING
100
AcDbLine
 10
1131.25058167947
 20
495.0489775864436
 30
0.0
 11
1271.25058167947
 21
495.0489775864436
 31
0.0
  0
ARC
  5
12CC
330
1F
100
AcDbEntity
  8
CUTTING
100
AcDbCircle
 10
1351.992576027696
 20
460.459587548198
 30
0.0
 40
10.0
100
AcDbArc
 50
334.0627147843737
 51
56.12453058754546
  0
LINE
  5
12CD
330
1F
100
AcDbEntity
  8
CUTTING
100
AcDbLine
 10
1273.05538976174
 20
341.0534094254118
 30
0.0
 11
1311.555291632542
 21
359.4368116105773
 31
0.0
  0
ARC
  5
12CE
330
1F
100
AcDbEntity
  8
CUTTING
100
AcDbCircle
 10
1307.246382878079
 20
368.4608520219291
 30
0.0
 40
9.999999999999995
100
AcDbArc
 50
295.5241106276685
 51
334.0627147843736
  0
INSERT
  5
12D0
330
1F
100
AcDbEntity
  8
CUTTING
100
AcDbBlockReference
  2
HEADSTRAP_CATCH_SLOT
 10
1081.267548638722
 20
408.6519808539936
 30
0.0
 41
-1.0
 50
295.9416833579008
  0
INSERT
  5
12D1
330
1F
100
AcDbEntity
  8
CUTTING
100
AcDbBlockReference
  2
HEADSTRAP_CATCH_SLOT
 10
1091.327930023102
 20
387.9677102797289
 30
0.0
 41
-1.0
 50
295.9416833579008
  0
LINE
  5
12D2
330
1F
100
AcDbEntity
  8
CUTTING
100
AcDbLine
 10
1086.262047082466
 20
364.0869811933165
 30
0.0
 11
1041.515853932849
 21
456.0857167195854
 31
0.0
  0
ARC
  5
12D3
330
1F
100
AcDbEntity
  8
CUTTING
100
AcDbCircle
 10
1131.25058167947
 20
340.1916276745191
 30
0.0
 40
154.8573499119245
100
AcDbArc
 50
90.0
 51
123.8754694124545
  0
ARC
  5
12D4
330
1F
100
AcDbEntity
  8
CUTTING
100
AcDbCircle
 10
1050.508587331245
 20
460.459587548198
 30
0.0
 40
10.0
100
AcDbArc
 50
123.8754694124544
 51
205.9372852156264
  0
LINE
  5
12D5
330
1F
100
AcDbEntity
  8
CUTTING
100
AcDbLine
 10
1129.4457735972
 20
341.0534094254118
 30
0.0
 11
1090.945871726398
 21
359.4368116105773
 31
0.0
  0
ARC
  5
12D6
330
1F
100
AcDbEntity
  8
CUTTING
100
AcDbCircle
 10
1095.254780480861
 20
368.4608520219291
 30
0.0
 40
9.999999999999995
100
AcDbArc
 50
205.9372852156264
 51
244.4758893723312
  0
ENDSEC
  0
SECTION
  2
OBJECTS
  0
DICTIONARY
  5
C
330
0
100
AcDbDictionary
  3
ACAD_DETAILVIEWSTYLE
350
202
  3
ACAD_GROUP
350
D
  3
ACAD_MLINESTYLE
350
17
  3
ACAD_SCALELIST
350
14E2
  3
ACAD_SECTIONVIEWSTYLE
350
203
  3
ACDBVARIABLEDICTIONARY
350
1FE
  3
APPDATA
350
D9
  3
DWGPROPS
350
1528
  3
FX_DICT_DIMENSION_PALETTE
350
397
  3
FX_DICT_DIMENSION_PALETTE_
350
399
  0
DICTIONARY
  5
155
330
2
100
AcDbDictionary
280
     1
  3
ACAD_LAYERSTATES
360
156
  3
ACLYDICTIONARY
360
5F3
  0
DICTIONARY
  5
208
330
1F
100
AcDbDictionary
280
     1
  3
ACAD_SORTENTS
360
9B0
  3
DIM_BOUNDING_BOXES_V1
360
209
  0
DICTIONARY
  5
FAB
330
95C
100
AcDbDictionary
280
     1
  3
ACAD_SORTENTS
360
FAC
  0
DICTIONARY
  5
9C9
330
963
100
AcDbDictionary
280
     1
  3
ACAD_SORTENTS
360
9CA
  0
DICTIONARY
  5
129C
330
BAC
100
AcDbDictionary
280
     1
  3
ACAD_SORTENTS
360
129D
  0
DICTIONARY
  5
C1F
330
BF7
100
AcDbDictionary
280
     1
  3
ACAD_SORTENTS
360
C20
  0
DICTIONARY
  5
FA6
330
DCD
100
AcDbDictionary
280
     1
  3
ACAD_SORTENTS
360
FA7
  0
DICTIONARY
  5
10AB
330
FED
100
AcDbDictionary
280
     1
  3
ACAD_SORTENTS
360
10AC
  0
DICTIONARY
  5
202
102
{ACAD_REACTORS
330
C
102
}
330
C
100
AcDbDictionary
  0
DICTIONARY
  5
D
102
{ACAD_REACTORS
330
C
102
}
330
C
100
AcDbDictionary
  0
DICTIONARY
  5
17
102
{ACAD_REACTORS
330
C
102
}
330
C
100
AcDbDictionary
  3
STANDARD
350
18
  0
DICTIONARY
  5
14E2
102
{ACAD_REACTORS
330
C
102
}
330
C
100
AcDbDictionary
  0
DICTIONARY
  5
203
102
{ACAD_REACTORS
330
C
102
}
330
C
100
AcDbDictionary
  0
DICTIONARY
  5
1FE
102
{ACAD_REACTORS
330
C
102
}
330
C
100
AcDbDictionary
  0
DICTIONARY
  5
D9
102
{ACAD_REACTORS
330
C
102
}
330
C
100
AcDbDictionary
  0
XRECORD
  5
1528
102
{ACAD_REACTORS
330
C
102
}
330
C
100
AcDbXrecord
  1
DWGPROPS COOKIE
  2

  3

  4

  6

  7

  8
bengeorge
  9

300
=
301
=
302
=
303
=
304
=
305
=
306
=
307
=
308
=
309
=
 40
0.0
 41
2458935.438657396
 42
2458945.988539259
  1

 90
        0
  0
DICTIONARY
  5
397
102
{ACAD_REACTORS
330
C
102
}
330
C
100
AcDbDictionary
1001
FX_DIMP_FAV_VERSION
1071
        1
  0
DICTIONARY
  5
399
102
{ACAD_REACTORS
330
C
102
}
330
C
100
AcDbDictionary
1001
FX_DIMP_RECENT_VERSION
1071
        1
  0
DICTIONARY
  5
156
102
{ACAD_REACTORS
330
155
102
}
330
155
100
AcDbDictionary
  0
DICTIONARY
  5
5F3
102
{ACAD_REACTORS
330
155
102
}
330
155
100
AcDbDictionary
1001
ACAD
1000
<All
  0
SORTENTSTABLE
  5
9B0
102
{ACAD_REACTORS
330
208
102
}
330
208
100
AcDbSortentsTable
330
1F
331
0
  5
13CE
  0
DICTIONARY
  5
209
102
{ACAD_REACTORS
330
208
102
}
330
208
100
AcDbDictionary
  0
SORTENTSTABLE
  5
FAC
102
{ACAD_REACTORS
330
FAB
102
}
330
FAB
100
AcDbSortentsTable
330
95C
  0
SORTENTSTABLE
  5
9CA
102
{ACAD_REACTORS
330
9C9
102
}
330
9C9
100
AcDbSortentsTable
330
963
  0
SORTENTSTABLE
  5
129D
102
{ACAD_REACTORS
330
129C
102
}
330
129C
100
AcDbSortentsTable
330
BAC
  0
SORTENTSTABLE
  5
C20
102
{ACAD_REACTORS
330
C1F
102
}
330
C1F
100
AcDbSortentsTable
330
BF7
  0
SORTENTSTABLE
  5
FA7
102
{ACAD_REACTORS
330
FA6
102
}
330
FA6
100
AcDbSortentsTable
330
DCD
331
F87
  5
F88
331
F88
  5
F92
331
F89
  5
FA3
331
F8A
  5
F90
331
F8B
  5
F94
331
F8C
  5
F9D
331
F8D
  5
FA5
331
F8E
  5
FA0
331
F8F
  5
FA4
331
F90
  5
F9C
331
F91
  5
FA1
331
F92
  5
FA2
331
F93
  5
F96
331
F94
  5
F89
331
F95
  5
F91
331
F96
  5
F8A
331
F97
  5
F8E
331
F98
  5
F8D
331
F99
  5
F87
331
F9A
  5
F8B
331
F9B
  5
F8F
331
F9C
  5
F8C
331
F9D
  5
F95
331
F9E
  5
F93
331
F9F
  5
F99
331
FA0
  5
F9A
331
FA1
  5
F9B
331
FA2
  5
F9F
331
FA3
  5
F9E
331
FA4
  5
F97
331
FA5
  5
F98
331
1440
  5
1443
331
1442
  5
1447
331
1443
  5
1444
331
1444
  5
1445
331
1445
  5
1446
331
1446
  5
1440
331
1447
  5
1442
  0
SORTENTSTABLE
  5
10AC
102
{ACAD_REACTORS
330
10AB
102
}
330
10AB
100
AcDbSortentsTable
330
FED
331
1397
  5
13A0
331
1398
  5
13A5
331
1399
  5
1397
331
139A
  5
1399
331
139B
  5
139A
331
139C
  5
13A3
331
139D
  5
13A2
331
139E
  5
139B
331
139F
  5
13A4
331
13A0
  5
139F
331
13A1
  5
139D
331
13A2
  5
13A1
331
13A3
  5
139E
331
13A4
  5
139C
331
13A5
  5
1398
  0
MLINESTYLE
  5
18
102
{ACAD_REACTORS
330
17
102
}
330
17
100
AcDbMlineStyle
  2
Standard
 70
     0
  3

 62
   256
 51
90.0
 52
90.0
 71
     2
 49
0.5
 62
   256
  6
BYLAYER
 49
-0.5
 62
   256
  6
BYLAYER
  0
ENDSEC
  0
EOF
